<svg id="Camada_1" data-name="Camada 1" xmlns="http://www.w3.org/2000/svg" viewBox="0 0 1080 1080"><defs><style>.cls-1{fill:#fc561e;}.cls-2{fill:#000144;}</style></defs><path class="cls-1" d="M582.34,407.36h-205V600.29H449.7V488.53a7.32,7.32,0,0,1,13-4.58l21.48,26.85a13.62,13.62,0,0,0,23-2.75l24.91-53.37a8.85,8.85,0,0,1,16,0L573,508a13.65,13.65,0,0,0,23,2.75L617.53,484a7.32,7.32,0,0,1,13,4.58v87.91a23.85,23.85,0,0,1-23.86,23.85h-157v72.35H582.34A132.63,132.63,0,0,0,715,540h0A132.64,132.64,0,0,0,582.34,407.36Z"/><path class="cls-2" d="M239.49,284l-56.68-56.77,10.91-10.89,56.67,56.77Zm9.37-9.36-10.12-10.14L250.33,253a29.69,29.69,0,0,0,6.39-9,23.08,23.08,0,0,0-.06-19.11,31.88,31.88,0,0,0-14.88-14.9,22.25,22.25,0,0,0-9.4-2A23.23,23.23,0,0,0,222.9,210a31.41,31.41,0,0,0-9,6.44L202.31,228,192.18,217.9,203.1,207a50.66,50.66,0,0,1,15.47-11,38,38,0,0,1,15.55-3.33,36,36,0,0,1,14.5,3.17,40.57,40.57,0,0,1,12.12,8.37l1.69,1.69a39.81,39.81,0,0,1,8.13,11.91,37.09,37.09,0,0,1,3.2,14.59,39.54,39.54,0,0,1-3.12,15.77,47.81,47.81,0,0,1-10.88,15.61Z"/><path class="cls-2" d="M330.11,208.83a43.06,43.06,0,0,1-17.72,6.86,37.85,37.85,0,0,1-16.31-1.37,42.9,42.9,0,0,1-13.61-7.09A41.33,41.33,0,0,1,273,197l-1.28-2a42.34,42.34,0,0,1-5.6-13.62,39.32,39.32,0,0,1-.41-15.26,38.69,38.69,0,0,1,6-15,44,44,0,0,1,13.48-12.79,44.61,44.61,0,0,1,17.31-6.87,38.72,38.72,0,0,1,16.13.86,39.31,39.31,0,0,1,13.67,6.79,42.4,42.4,0,0,1,10,10.81l1.29,2a40.62,40.62,0,0,1,5.23,12.94,43.94,43.94,0,0,1,.66,15.36,37.93,37.93,0,0,1-5.63,15.37A43.2,43.2,0,0,1,330.11,208.83Zm-7.71-12.08a26.72,26.72,0,0,0,8.07-7.73,23.71,23.71,0,0,0,3.75-9.55,26.63,26.63,0,0,0-.33-10.21,30.47,30.47,0,0,0-4.13-9.79,31.17,31.17,0,0,0-7.39-8.16,26.44,26.44,0,0,0-9.14-4.53,23.56,23.56,0,0,0-10.08-.46A29.73,29.73,0,0,0,284.81,158a23.37,23.37,0,0,0-3.88,9.36,25.52,25.52,0,0,0,.31,10.17,32,32,0,0,0,4.33,10.11,30.33,30.33,0,0,0,7.14,7.87,26.86,26.86,0,0,0,9.13,4.61,24,24,0,0,0,10.24.61A26.49,26.49,0,0,0,322.4,196.75Z"/><path class="cls-2" d="M374,179.86l-25.5-75,19.94-6.77,34,38.42,1.85-.64,3.47-51.16,20.25-6.88,25.5,75-14.49,4.93-21.77-64,1.93-.42-3.76,55.38-14.91,5.07-36.83-41.6,1.88-.86,21.76,64Z"/><path class="cls-2" d="M470.75,151.56l-12.5-78.25,15.22-2.43L486,149.12Z"/><path class="cls-2" d="M502.85,145.46l-.27-79.24,25.29-.09,33.44,66.32H565l-2.17,2L562.6,66,577.15,66l.27,79.25-25.51.09L518.47,79l-3.69,0,2.16-2,.23,68.38Z"/><path class="cls-2" d="M585.49,145.75,628.55,74l24.72,5.34,10.42,83.32-15.59-3.37-8.41-72.11,4.9,3.5-13.26-2.87,6-1.14L600.57,149Zm22.89-16.49,7.55-11.81,31.3,6.76,2,13.87Z"/><path class="cls-2" d="M692.37,174.41l36.78-71.29,13.7,7.07-36.78,71.29Zm11.77,6.07,6.57-12.73,14.56,7.52a29.77,29.77,0,0,0,10.57,3.31A23,23,0,0,0,754,172.69,31.81,31.81,0,0,0,763.68,154a22.26,22.26,0,0,0-.92-9.58,23,23,0,0,0-5-8.36,31,31,0,0,0-8.87-6.6l-14.56-7.51,6.57-12.74,13.69,7.07a50.78,50.78,0,0,1,15.2,11.39,37.91,37.91,0,0,1,7.91,13.79,35.7,35.7,0,0,1,1.41,14.77,40.4,40.4,0,0,1-4.28,14.1l-1.09,2.12a39.68,39.68,0,0,1-8.86,11.37A36.88,36.88,0,0,1,752,191.31a39.63,39.63,0,0,1-16,1.84,47.92,47.92,0,0,1-18.18-5.6Z"/><path class="cls-2" d="M764.16,213.67l48.41-62.74,11.94,9.21-48.4,62.74Zm10.23,7.89,8-10.31,28.44,21.94-7.95,10.31ZM795,194.83l8-10.32,26.22,20.23-8,10.31Zm19.83-25.7,7.95-10.31,27.76,21.42-7.95,10.31Z"/><path class="cls-2" d="M824.56,265.17l41.54-72,10.76,11.79-36.54,61.72-1.47-4.83,7.91,8.66-4.76-2,63.7-32,10.39,11.39L841.76,284Z"/><path class="cls-2" d="M913.14,405.37l77.47-20.86,4,14.88-77.46,20.87Zm3.45,12.79,13.84-3.73,4.26,15.83a29.57,29.57,0,0,0,4.67,10A23.09,23.09,0,0,0,956,449.77a31.89,31.89,0,0,0,20.33-5.48,22.21,22.21,0,0,0,6.45-7.13,23,23,0,0,0,2.83-9.31,31,31,0,0,0-1.11-11L980.21,401l13.84-3.72,4,14.88a50.82,50.82,0,0,1,1.84,18.9A37.93,37.93,0,0,1,995,446.22a35.91,35.91,0,0,1-10,11,40.68,40.68,0,0,1-13.3,6.34l-2.31.62a39.78,39.78,0,0,1-14.36,1.12,37.18,37.18,0,0,1-14.25-4.48,39.62,39.62,0,0,1-12.12-10.57,48.05,48.05,0,0,1-8.12-17.2Z"/><path class="cls-2" d="M933.22,521.42a43,43,0,0,1,2.85-18.78,37.75,37.75,0,0,1,9.3-13.48,42.89,42.89,0,0,1,12.91-8.28,41.38,41.38,0,0,1,13.6-3.16l2.39-.11a42.36,42.36,0,0,1,14.6,1.91,39.62,39.62,0,0,1,13.44,7.23,38.79,38.79,0,0,1,10,12.62,49,49,0,0,1,1.75,36.48,38.42,38.42,0,0,1-8.75,13.57,39.18,39.18,0,0,1-12.69,8.49,42.43,42.43,0,0,1-14.35,3.29l-2.38.12a40.64,40.64,0,0,1-13.84-1.89,43.9,43.9,0,0,1-13.65-7.06,37.91,37.91,0,0,1-10.55-12.54A43.11,43.11,0,0,1,933.22,521.42Zm14.31-.69a26.83,26.83,0,0,0,2.7,10.85,24,24,0,0,0,6.41,8,26.87,26.87,0,0,0,9,4.79,30.81,30.81,0,0,0,10.55,1.29A31.13,31.13,0,0,0,987,543.29a26.33,26.33,0,0,0,8.47-5.68,23.41,23.41,0,0,0,5.41-8.51,29.72,29.72,0,0,0-1-21.74,23.57,23.57,0,0,0-6.2-8,25.79,25.79,0,0,0-9-4.78,31.92,31.92,0,0,0-10.93-1.27,30.32,30.32,0,0,0-10.37,2.29,26.77,26.77,0,0,0-8.53,5.62,23.79,23.79,0,0,0-5.62,8.58A26.31,26.31,0,0,0,947.53,520.73Z"/><path class="cls-2" d="M936.56,574l77.8,15.06-4,20.68-50.24,10.5-.37,1.92,42.71,28.4-4.06,21-77.8-15.06,2.91-15,66.4,12.85-.59,1.88-46.24-30.73,3-15.45,54.39-11.37-.18,2.07-66.39-12.85Z"/><path class="cls-2" d="M913.22,671.88l74.14,28-5.44,14.43-74.14-28Z"/><path class="cls-2" d="M902.61,702.75,971.45,742l-12.53,22-74.16-4-1.82,3.21-.62-2.86,59.41,33.87-7.21,12.63-68.84-39.23,12.63-22.17,74.17,4,1.82-3.21.63,2.86-59.41-33.87Z"/><path class="cls-2" d="M861.1,774.37l40.88,73-16.93,18.8-77.48-32.37L818.25,822,885,850.52,879.52,853,888.6,843l-2,5.79-35.82-62.91ZM864,802.43l6.49,12.42L849.1,838.64l-13-5.15Z"/><path class="cls-2" d="M772,860.13l7.81,12-13.74,8.93a29.55,29.55,0,0,0-8.11,7.54,23,23,0,0,0-3.89,18.71A31.74,31.74,0,0,0,765.59,925a22,22,0,0,0,8.77,3.93,22.86,22.86,0,0,0,9.73-.16,31.35,31.35,0,0,0,10.12-4.45L808,915.38l7.81,12-12.92,8.4a50.78,50.78,0,0,1-17.42,7.57,38,38,0,0,1-15.9,0A35.74,35.74,0,0,1,756,937.31a40.31,40.31,0,0,1-10.13-10.7l-1.3-2a39.72,39.72,0,0,1-5.5-13.33,37,37,0,0,1-.12-14.93,39.35,39.35,0,0,1,6.31-14.78,47.76,47.76,0,0,1,13.87-13Zm11.1-7.21,43.72,67.25-12.92,8.4-43.72-67.25Z"/><path class="cls-2" d="M701.57,900.8l5,12-33.18,13.79-5-12Zm13,31.17,5,12L689,956.7l-5-12Zm12.45,30,5,12-32.37,13.46-5-12Zm-13.49-66.1L743.91,969,730,974.8l-30.41-73.17Z"/><path class="cls-2" d="M638.87,922.61l41.75,71.9L665,998l-35.31-62.44,4.92,1.13L623.2,939.2l4.09-3.13-4,71.16-15,3.34L614,928.13Z"/><path class="cls-2" d="M468.58,928.09,465.26,942l-15.95-3.8a29.49,29.49,0,0,0-11.05-.68A23.12,23.12,0,0,0,422,947.63a29.31,29.31,0,0,0-4.17,9.77,29.87,29.87,0,0,0-.71,10.72,22.22,22.22,0,0,0,3.2,9.07,23,23,0,0,0,6.82,6.93,31.26,31.26,0,0,0,10.2,4.27l15.94,3.8L450,1006.13l-15-3.58a50.92,50.92,0,0,1-17.48-7.4,38,38,0,0,1-11-11.49,35.74,35.74,0,0,1-4.92-14,40.47,40.47,0,0,1,.77-14.71l.55-2.32a39.76,39.76,0,0,1,5.87-13.16,37,37,0,0,1,10.74-10.39,39.44,39.44,0,0,1,15.06-5.62,47.91,47.91,0,0,1,19,1.07Zm12.88,3.07-18.59,78-15-3.57,18.6-78Z"/><path class="cls-2" d="M370,893.43a43,43,0,0,1,15.12,11.49,37.86,37.86,0,0,1,7.38,14.63,43,43,0,0,1,1.08,15.3,41.15,41.15,0,0,1-3.75,13.44l-1,2.15a42.62,42.62,0,0,1-8.67,11.91,39.72,39.72,0,0,1-12.79,8.33,38.74,38.74,0,0,1-15.87,2.73,44,44,0,0,1-17.94-4.78,44.51,44.51,0,0,1-14.92-11.16,38.67,38.67,0,0,1-7.72-14.19,39.46,39.46,0,0,1-1.37-15.2,42.41,42.41,0,0,1,4-14.17l1-2.15a40.41,40.41,0,0,1,8.29-11.24,43.85,43.85,0,0,1,12.73-8.6,37.94,37.94,0,0,1,16.06-3.25A43,43,0,0,1,370,893.43Zm-6.25,12.89a26.72,26.72,0,0,0-10.81-2.83,23.92,23.92,0,0,0-10.11,1.79,26.71,26.71,0,0,0-8.52,5.64,30.55,30.55,0,0,0-6.19,8.64A31,31,0,0,0,325,930.13a26.31,26.31,0,0,0,.92,10.16,23.56,23.56,0,0,0,4.88,8.82,29.69,29.69,0,0,0,19.59,9.51,23.47,23.47,0,0,0,10-1.6,25.62,25.62,0,0,0,8.5-5.59,31.77,31.77,0,0,0,6.35-9,30.67,30.67,0,0,0,3-10.21,27,27,0,0,0-.85-10.18,24.11,24.11,0,0,0-4.84-9A26.65,26.65,0,0,0,363.73,906.32Z"/><path class="cls-2" d="M322.2,871.08l-50.46,61.1L255.5,918.77l14.82-49.14-1.51-1.24-45.36,23.9L207,878.68l50.46-61.1,11.79,9.75-43.06,52.14-1.36-1.41,49.11-25.89,12.14,10L270,915.38l-1.73-1.14,43.06-52.15Z"/><path class="cls-2" d="M247.37,803.76l-59.94,51.83-10.08-11.67,59.94-51.83Z"/><path class="cls-2" d="M225.28,779.71,158,821.53,144.62,800l38.9-63.27-2-3.14,2.81.82-58.09,36.09-7.68-12.36,67.31-41.82L199.38,738l-38.9,63.27,2,3.14-2.8-.82,58.08-36.08Z"/><path class="cls-2" d="M182.15,709.19l-83.69.95-8.4-23.86,65.49-52.55,5.31,15.06-57,45,.41-6,4.51,12.79L104.64,696,177,694.65Zm-26-10.86-14-.24L131.45,667.9l10.77-9Z"/><path class="cls-2" d="M149.81,590l-14.27,1.3-1.49-16.32a29.68,29.68,0,0,0-2.88-10.69,23.09,23.09,0,0,0-14.73-12.18,31.93,31.93,0,0,0-21,1.91,22.35,22.35,0,0,0-7.58,5.93,23.11,23.11,0,0,0-4.38,8.68,31.32,31.32,0,0,0-.8,11l1.49,16.32-14.27,1.3-1.4-15.35A50.84,50.84,0,0,1,70,562.94a37.86,37.86,0,0,1,7.38-14.08,35.85,35.85,0,0,1,11.71-9.13,40.3,40.3,0,0,1,14.19-4l2.37-.22A39.82,39.82,0,0,1,120,536.92a36.86,36.86,0,0,1,13.26,6.86,39.47,39.47,0,0,1,10.13,12.48,47.87,47.87,0,0,1,5,18.34Zm1.2,13.19-79.89,7.28-1.4-15.35,79.89-7.28Z"/><path class="cls-2" d="M146.18,521.29l-78.82-8.17,1.55-15,78.82,8.17ZM81.65,501.61l-13-1.35,3.62-34.87,13,1.35ZM113.93,505l-13-1.35,3.42-32.93,13,1.35Zm33.58,3.48-13-1.34,3.71-35.74,13,1.34Z"/><path class="cls-2" d="M158.22,443l-83.11,2.4,4.39-15.34,71.72-1.26-3.34,3.79,3.23-11.27.8,5.08L91.28,389l4.24-14.82,69.72,44.36Z"/><rect class="cls-2" x="148.16" y="305.87" width="36.8" height="36.8" rx="18.4"/><rect class="cls-2" x="903.85" y="305.87" width="36.8" height="36.8" rx="18.4"/><rect class="cls-2" x="522.67" y="958.21" width="36.8" height="36.8" rx="18.4" transform="translate(-532.09 668.64) rotate(-45)"/><path class="cls-1" d="M540,875.49C355,875.49,204.51,725,204.51,540S355,204.52,540,204.52,875.49,355,875.49,540,725,875.49,540,875.49Zm0-661c-179.51,0-325.56,146-325.56,325.55S360.49,865.56,540,865.56,865.56,719.51,865.56,540,719.51,214.45,540,214.45Z"/><path class="cls-1" d="M540,1080C242.24,1080,0,837.76,0,540S242.24,0,540,0s540,242.24,540,540S837.76,1080,540,1080ZM540,9.93C247.72,9.93,9.93,247.72,9.93,540S247.72,1070.07,540,1070.07,1070.07,832.28,1070.07,540,832.28,9.93,540,9.93Z"/></svg>