<svg width="201" height="334" viewBox="0 0 201 334" fill="none" xmlns="http://www.w3.org/2000/svg">
<path d="M197.616 171.802C188.786 164.999 165.277 146.21 143.382 123.631C128.829 108.615 122.639 93.5822 111.606 82.2027C101.614 71.8966 92.524 65.8902 92.524 65.8902L89.9642 68.53L72.6717 50.6976L79.3513 43.8079C79.8936 43.242 80.1964 42.4885 80.1964 41.7046C80.1964 40.9208 79.8936 40.1673 79.3513 39.6014L77.9714 38.1782C77.9781 38.1715 97.6305 11.7261 122.479 19.0391C125.366 19.8957 127.939 21.3523 128.669 20.609C129.662 19.589 125.879 15.6692 123.663 13.4027C92.2274 -18.7625 57.5524 17.0825 57.5357 17.0991L56.3124 15.8359C56.0492 15.561 55.7331 15.3423 55.3831 15.1929C55.0331 15.0434 54.6564 14.9664 54.2759 14.9664C53.8953 14.9664 53.5187 15.0434 53.1687 15.1929C52.8187 15.3423 52.5025 15.561 52.2393 15.8359L21.4441 47.5944C20.9018 48.1603 20.599 48.9138 20.599 49.6976C20.599 50.4814 20.9018 51.2349 21.4441 51.8008C21.4441 51.8008 25.2139 58.3972 15.3277 59.5838C11.3479 60.0671 8.85468 60.9637 7.44141 62.147C5.23533 64.3719 3.03654 66.6041 0.845059 68.8434C0.302755 69.4093 0 70.1628 0 70.9466C0 71.7304 0.302755 72.4839 0.845059 73.0498L23.8906 96.822C24.1541 97.097 24.4706 97.3158 24.8209 97.4652C25.1711 97.6147 25.548 97.6918 25.9289 97.6918C26.3097 97.6918 26.6866 97.6147 27.0369 97.4652C27.3872 97.3158 27.7036 97.097 27.9671 96.822C27.9671 96.822 34.3201 90.189 34.4568 90.0157C35.6001 88.5558 36.4734 85.9892 36.9333 81.8828C38.0933 71.6832 44.4797 75.5764 44.4797 75.5764C44.743 75.8523 45.0595 76.0719 45.4101 76.2219C45.7608 76.372 46.1382 76.4493 46.5196 76.4493C46.9009 76.4493 47.2784 76.372 47.629 76.2219C47.9796 76.0719 48.2962 75.8523 48.5595 75.5764L55.2392 68.6867L72.525 86.5159L69.9651 89.1591C69.9651 89.1591 75.7915 98.5353 85.7844 108.841C96.8139 120.218 111.393 126.601 125.949 141.617C147.838 164.196 166.054 188.438 172.66 197.547C175.153 200.977 175.55 200.66 178.593 197.517L188.09 187.724L197.579 177.935C200.629 174.782 200.942 174.375 197.616 171.802Z" fill="black"/>
<path d="M106.69 68.9643C109.551 71.5486 112.327 74.2255 115.013 76.9906C120.319 82.4636 124.759 88.5867 129.209 95.123L159.014 65.3144C164.541 66.6652 170.323 66.5696 175.802 65.0368C181.281 63.504 186.274 60.5858 190.297 56.5633C194.321 52.5408 197.241 47.5496 198.776 42.0709C200.31 36.5921 200.408 30.8104 199.059 25.283L172.007 52.3351L152.808 47.192L147.661 27.9829L174.707 0.9475C169.181 -0.404595 163.4 -0.308144 157.922 1.22753C152.445 2.7632 147.456 5.68614 143.438 9.71375C139.414 13.7329 136.493 18.721 134.957 24.1973C133.421 29.6735 133.322 35.4532 134.669 40.9789L106.69 68.9643Z" fill="black"/>
<path d="M81.6282 111.429C78.7698 108.477 76.0138 105.428 73.3652 102.286L40.9768 134.678C35.4512 133.327 29.6707 133.424 24.1934 134.959C18.7162 136.494 13.7272 139.415 9.70823 143.441C-3.23449 156.374 -3.23116 177.353 9.70823 190.289C12.7833 193.366 16.4346 195.807 20.4535 197.473C24.4724 199.138 28.7801 199.996 33.1305 199.996C37.4808 199.996 41.7885 199.138 45.8074 197.473C49.8264 195.807 53.4776 193.366 56.5527 190.289C60.5774 186.267 63.4984 181.276 65.0344 175.798C66.5704 170.32 66.6695 164.538 65.3223 159.01L98.6674 125.668C92.5343 121.209 86.7779 116.739 81.6282 111.429ZM38.2769 186.065L19.0745 180.919L13.9314 161.713L27.9907 147.664L47.1898 152.8L52.3329 172.009L38.2769 186.065Z" fill="black"/>
<path d="M22.44 306.04V308.504H14.12V315.128H21.8V317.56H14.12V324.536H22.44V327H11.4V306.04H22.44ZM41.7793 311C43.1446 311 44.1899 311.469 44.9153 312.408C45.6406 313.325 46.0033 314.637 46.0033 316.344V327H43.2833V316.728C43.2833 314.595 42.6006 313.528 41.2353 313.528C40.6379 313.528 40.0193 313.763 39.3793 314.232C38.7606 314.701 38.2166 315.341 37.7473 316.152V327H35.0273V316.728C35.0273 314.595 34.3446 313.528 32.9792 313.528C32.3819 313.528 31.7633 313.763 31.1233 314.232C30.5046 314.701 29.9606 315.341 29.4913 316.152V327H26.7713V311.384H29.3313V313.72C29.8859 312.845 30.5259 312.173 31.2513 311.704C31.9766 311.235 32.7339 311 33.5233 311C34.5046 311 35.3259 311.256 35.9873 311.768C36.6486 312.259 37.1286 312.984 37.4273 313.944C38.0033 312.984 38.6646 312.259 39.4113 311.768C40.1579 311.256 40.9473 311 41.7793 311ZM63.056 305.656C63.888 305.656 64.784 305.741 65.744 305.912C66.7253 306.061 67.3013 306.147 67.472 306.168L67.408 308.568C65.5307 308.227 64.08 308.056 63.056 308.056C61.6053 308.056 60.56 308.355 59.92 308.952C59.28 309.549 58.96 310.541 58.96 311.928V321.08C58.96 322.467 59.2693 323.459 59.888 324.056C60.528 324.632 61.584 324.92 63.056 324.92C64.08 324.92 65.5307 324.749 67.408 324.408L67.472 326.872C67.3013 326.893 66.7253 326.979 65.744 327.128C64.784 327.299 63.888 327.384 63.056 327.384C60.6027 327.384 58.8533 326.861 57.808 325.816C56.7627 324.771 56.24 323.139 56.24 320.92V312.12C56.24 309.901 56.7627 308.269 57.808 307.224C58.8533 306.179 60.6027 305.656 63.056 305.656ZM76.4583 311C78.3569 311 79.7649 311.512 80.6823 312.536C81.6209 313.539 82.0903 314.968 82.0903 316.824V321.56C82.0903 323.416 81.6209 324.856 80.6823 325.88C79.7649 326.883 78.3569 327.384 76.4583 327.384C74.5596 327.384 73.1409 326.883 72.2023 325.88C71.2849 324.856 70.8263 323.416 70.8263 321.56V316.824C70.8263 314.968 71.2849 313.539 72.2023 312.536C73.1409 311.512 74.5596 311 76.4583 311ZM76.4583 313.272C75.5409 313.272 74.8263 313.56 74.3143 314.136C73.8023 314.712 73.5463 315.533 73.5463 316.6V321.784C73.5463 322.851 73.8023 323.672 74.3143 324.248C74.8263 324.824 75.5409 325.112 76.4583 325.112C77.3756 325.112 78.0903 324.824 78.6023 324.248C79.1143 323.672 79.3703 322.851 79.3703 321.784V316.568C79.3703 315.501 79.1143 314.691 78.6023 314.136C78.0903 313.56 77.3756 313.272 76.4583 313.272ZM93.056 311C94.4213 311 95.4667 311.469 96.192 312.408C96.9387 313.325 97.312 314.637 97.312 316.344V327H94.592V316.728C94.592 314.595 93.8987 313.528 92.512 313.528C91.8933 313.528 91.264 313.763 90.624 314.232C89.984 314.701 89.4293 315.341 88.96 316.152V327H86.24V311.384H88.8V313.72C89.376 312.845 90.016 312.173 90.72 311.704C91.4453 311.235 92.224 311 93.056 311ZM106.283 311C107.179 311 108.256 311.128 109.515 311.384L109.451 313.688C108.341 313.432 107.328 313.304 106.411 313.304C104.491 313.304 103.531 313.923 103.531 315.16V315.448C103.531 315.832 103.627 316.141 103.819 316.376C104.032 316.611 104.405 316.856 104.939 317.112L107.947 318.52C109.76 319.373 110.667 320.621 110.667 322.264V322.968C110.645 324.44 110.197 325.549 109.323 326.296C108.469 327.021 107.115 327.384 105.259 327.384C104.299 327.384 102.923 327.16 101.131 326.712L101.259 324.28C102.859 324.749 104.171 324.984 105.195 324.984C106.24 324.984 106.965 324.845 107.371 324.568C107.776 324.269 107.979 323.789 107.979 323.128V322.808C107.979 322.296 107.872 321.891 107.659 321.592C107.467 321.293 107.136 321.037 106.667 320.824L103.562 319.448C102.624 319.021 101.931 318.509 101.483 317.912C101.056 317.315 100.843 316.621 100.843 315.832V315.384C100.885 313.933 101.333 312.845 102.187 312.12C103.061 311.373 104.427 311 106.283 311ZM117.221 311.384H121.381V313.624H117.221V322.776C117.221 323.587 117.381 324.173 117.701 324.536C118.043 324.877 118.565 325.048 119.269 325.048C120.165 325.048 121.04 324.941 121.893 324.728L121.957 327C121.019 327.256 120.165 327.384 119.397 327.384C117.691 327.384 116.443 327.011 115.653 326.264C114.885 325.496 114.501 324.259 114.501 322.552V313.624H112.261V311.384H114.501L115.013 307.224H117.221V311.384ZM131.65 311C131.948 311 132.183 311.021 132.354 311.064V314.136C132.034 314.072 131.618 314.04 131.106 314.04C129.612 314.04 128.428 314.787 127.554 316.28V327H124.834V311.384H127.394V313.72C127.97 312.845 128.61 312.173 129.314 311.704C130.039 311.235 130.818 311 131.65 311ZM146.12 327H143.56V324.76C142.984 325.613 142.344 326.264 141.64 326.712C140.936 327.16 140.189 327.384 139.4 327.384C138.099 327.384 137.075 326.936 136.328 326.04C135.603 325.123 135.24 323.789 135.24 322.04V311.384H137.96V321.56C137.96 322.691 138.131 323.523 138.472 324.056C138.835 324.589 139.325 324.856 139.944 324.856C140.52 324.856 141.117 324.632 141.736 324.184C142.376 323.715 142.931 323.075 143.4 322.264V311.384H146.12V327ZM156.151 311C156.706 311 157.186 311.032 157.591 311.096C157.996 311.139 158.583 311.224 159.351 311.352L159.287 313.752C158.647 313.624 158.114 313.539 157.687 313.496C157.26 313.432 156.748 313.4 156.151 313.4C155.127 313.4 154.348 313.677 153.815 314.232C153.282 314.787 153.015 315.576 153.015 316.6V321.752C153.015 322.819 153.282 323.629 153.815 324.184C154.37 324.717 155.148 324.984 156.151 324.984C156.748 324.984 157.26 324.963 157.687 324.92C158.114 324.856 158.647 324.76 159.287 324.632L159.351 327.032C158.583 327.16 157.986 327.245 157.559 327.288C157.154 327.352 156.663 327.384 156.087 327.384L155.799 328.312H156.119C156.588 328.312 156.983 328.504 157.303 328.888C157.623 329.272 157.783 329.763 157.783 330.36V330.84C157.783 331.693 157.527 332.312 157.015 332.696C156.524 333.101 155.767 333.304 154.743 333.304C154.338 333.304 153.815 333.251 153.175 333.144V331.448C153.772 331.533 154.156 331.576 154.327 331.576C155.202 331.576 155.639 331.32 155.639 330.808V330.392C155.618 330.072 155.522 329.848 155.351 329.72C155.202 329.613 154.935 329.56 154.551 329.56H153.591V328.888L154.135 327.16C151.575 326.605 150.295 324.739 150.295 321.56V316.824C150.295 312.941 152.247 311 156.151 311ZM167.852 311C169.686 311 171.02 311.416 171.852 312.248C172.705 313.059 173.132 314.36 173.132 316.152V327H170.54V324.504C169.302 326.424 167.905 327.384 166.348 327.384C165.11 327.384 164.118 326.957 163.372 326.104C162.646 325.251 162.284 324.088 162.284 322.616V321.72C162.284 320.44 162.721 319.384 163.596 318.552C164.47 317.699 165.644 317.272 167.116 317.272C167.926 317.272 169.025 317.411 170.412 317.688V315.928C170.412 315.011 170.198 314.349 169.772 313.944C169.366 313.539 168.726 313.336 167.852 313.336C166.828 313.336 165.388 313.496 163.532 313.816V311.48C165.537 311.16 166.977 311 167.852 311ZM167.788 319.384C166.892 319.384 166.209 319.619 165.74 320.088C165.27 320.557 165.036 321.219 165.036 322.072V322.424C165.036 323.213 165.217 323.832 165.58 324.28C165.942 324.728 166.401 324.952 166.956 324.952C167.532 324.952 168.118 324.707 168.716 324.216C169.334 323.704 169.9 322.989 170.412 322.072V319.608C169.601 319.459 168.726 319.384 167.788 319.384ZM172.204 307.32C172.14 307.363 171.99 307.469 171.756 307.64C171.542 307.789 171.244 307.939 170.86 308.088C170.476 308.216 170.07 308.28 169.644 308.28C169.153 308.28 168.588 308.141 167.948 307.864C167.692 307.757 167.425 307.672 167.148 307.608C166.892 307.523 166.636 307.48 166.38 307.48C166.06 307.48 165.718 307.544 165.356 307.672C164.993 307.779 164.673 307.896 164.396 308.024C164.118 308.152 163.948 308.237 163.884 308.28V306.04C163.948 305.997 164.086 305.901 164.3 305.752C164.534 305.581 164.844 305.432 165.228 305.304C165.612 305.155 166.017 305.08 166.444 305.08C166.828 305.08 167.137 305.123 167.372 305.208C167.628 305.272 167.969 305.379 168.396 305.528C168.95 305.763 169.388 305.88 169.708 305.88C170.028 305.88 170.369 305.827 170.732 305.72C171.094 305.592 171.414 305.464 171.692 305.336C171.969 305.208 172.14 305.123 172.204 305.08V307.32ZM182.771 311C184.669 311 186.077 311.512 186.995 312.536C187.933 313.539 188.403 314.968 188.403 316.824V321.56C188.403 323.416 187.933 324.856 186.995 325.88C186.077 326.883 184.669 327.384 182.771 327.384C180.872 327.384 179.453 326.883 178.515 325.88C177.597 324.856 177.139 323.416 177.139 321.56V316.824C177.139 314.968 177.597 313.539 178.515 312.536C179.453 311.512 180.872 311 182.771 311ZM182.771 313.272C181.853 313.272 181.139 313.56 180.627 314.136C180.115 314.712 179.859 315.533 179.859 316.6V321.784C179.859 322.851 180.115 323.672 180.627 324.248C181.139 324.824 181.853 325.112 182.771 325.112C183.688 325.112 184.403 324.824 184.915 324.248C185.427 323.672 185.683 322.851 185.683 321.784V316.568C185.683 315.501 185.427 314.691 184.915 314.136C184.403 313.56 183.688 313.272 182.771 313.272Z" fill="black"/>
</svg>
