<svg width="32" height="31" viewBox="0 0 32 31" fill="none" xmlns="http://www.w3.org/2000/svg">
<path d="M31.0847 20.5266L24.6412 15.9391C24.5753 15.8918 24.4976 15.8638 24.4168 15.858C24.3359 15.8523 24.255 15.8691 24.1832 15.9066C24.0352 15.9827 23.9444 16.1489 23.9441 16.3161L23.9472 18.4877H18.1505C17.904 18.4877 17.6649 18.6611 17.6649 18.9079V22.9021C17.6649 23.1488 17.904 23.3188 18.1505 23.3188H24.0058V25.5075C24.0058 25.6744 24.0701 25.8276 24.2184 25.9041C24.3668 25.9805 24.5162 25.9676 24.652 25.8702L31.0861 21.2527C31.2031 21.1692 31.2526 21.0342 31.2526 20.8903V20.8896C31.2526 20.7451 31.2024 20.6104 31.0847 20.5266Z" fill="#1A2930"/>
<path d="M20.5343 25.0646H18.2688C18.1086 25.0646 17.955 25.1282 17.8418 25.2415C17.7285 25.3547 17.6649 25.5083 17.6649 25.6685H17.6625V26.7192H3.47538V10.2663H9.66203C9.82219 10.2663 9.97579 10.2026 10.089 10.0894C10.2023 9.97614 10.2659 9.82254 10.2659 9.66238V3.47573H17.6621V16.1667H17.6659C17.6693 16.3243 17.7343 16.4743 17.8469 16.5846C17.9595 16.695 18.1108 16.7568 18.2684 16.757H20.5339C20.8631 16.757 21.1291 16.4938 21.1364 16.1667H21.1378V16.1534V16.1531V2.00718H21.1361V0.603898C21.1361 0.443734 21.0725 0.290131 20.9592 0.176878C20.846 0.0636248 20.6924 0 20.5322 0H9.05813L0 9.05848V29.5907C0 29.9244 0.270183 30.1946 0.603898 30.1946H20.5322C20.6924 30.1946 20.846 30.1309 20.9592 30.0177C21.0725 29.9044 21.1361 29.7508 21.1361 29.5907V28.7361H21.1378V25.6678C21.1377 25.5078 21.0741 25.3543 20.9609 25.2412C20.8478 25.1281 20.6943 25.0646 20.5343 25.0646Z" fill="#1A2930"/>
<path d="M7.31136 20.0447C7.60144 20.0447 7.85242 20.2622 7.9348 20.5131L8.77537 20.1218C8.58233 19.6775 8.15716 19.1846 7.3117 19.1846C6.30183 19.1846 5.53876 19.8562 5.53876 20.8514C5.53876 21.8417 6.30218 22.5179 7.3117 22.5179C8.15716 22.5179 8.58722 22.0058 8.77537 21.5757L7.9348 21.1893C7.85277 21.4403 7.60144 21.6578 7.31136 21.6578C6.8429 21.6578 6.52873 21.3003 6.52873 20.8511C6.52873 20.4018 6.84255 20.0447 7.31136 20.0447Z" fill="#1A2930"/>
<path d="M10.6192 21.6978C10.2324 21.6983 9.86024 21.5495 9.58036 21.2824L9.07315 22.0071C9.41594 22.3164 9.88475 22.5192 10.571 22.5192C11.4357 22.5192 11.9624 22.1087 11.9624 21.3983C11.9624 20.2003 10.1699 20.4611 10.1699 20.1567C10.1699 20.0746 10.223 20.0118 10.4164 20.0118C10.7208 20.0118 11.0831 20.1179 11.3631 20.3305L11.8849 19.6397C11.5177 19.3402 11.0444 19.1904 10.5176 19.1904C9.63342 19.1904 9.17962 19.7123 9.17962 20.2582C9.17962 21.5289 10.9767 21.2147 10.9767 21.524C10.9767 21.6493 10.8028 21.6978 10.6192 21.6978Z" fill="#1A2930"/>
<path d="M13.2774 19.2383H12.1712L13.3594 22.4606H14.5868L15.775 19.2383H14.6688L13.9731 21.4074L13.2774 19.2383Z" fill="#1A2930"/>
</svg>
