<svg id="Camada_1" data-name="Camada 1" xmlns="http://www.w3.org/2000/svg" viewBox="0 0 1080 848.57"><defs><style>.cls-1{fill:#000144;}</style></defs><path class="cls-1" d="M655.71,0H0V617.14H231.43V259.64c0-22.15,27.88-31.93,41.72-14.64l68.7,85.89c20.2,25.24,59.88,20.49,73.56-8.8l79.67-170.72c10.16-21.77,41.11-21.77,51.27,0L626,322c13.7,29.35,53.45,34.1,73.68,8.81L768.29,245c13.83-17.29,41.71-7.51,41.71,14.63v281.2a76.31,76.31,0,0,1-76.31,76.31H231.43V848.57H655.71c234.33,0,424.29-190,424.29-424.28h0C1080,190,890,0,655.71,0Z"/></svg>