<svg id="Camada_1" data-name="Camada 1" xmlns="http://www.w3.org/2000/svg" viewBox="0 0 1305.32 1080"><defs><style>.cls-1{fill:#fc561e;}</style></defs><path class="cls-1" d="M698.45,0H439V244.21h91.58V102.74A9.27,9.27,0,0,1,547.06,97l27.19,34a17.26,17.26,0,0,0,29.11-3.48L634.88,59.9a11.19,11.19,0,0,1,20.29,0l31.51,67.51a17.28,17.28,0,0,0,29.15,3.49L743,97a9.27,9.27,0,0,1,16.51,5.79V214a30.2,30.2,0,0,1-30.2,30.2H530.56v91.57H698.45A167.89,167.89,0,0,0,866.34,167.89h0A167.89,167.89,0,0,0,698.45,0Z"/><path class="cls-1" d="M401.55,560.69A96.94,96.94,0,0,0,369,539.48q-19.14-7.77-43.63-7.77-23.81,0-43.12,7.77a98.5,98.5,0,0,0-32.95,21.21,92.45,92.45,0,0,0-20.86,31.22,98.14,98.14,0,0,0-7.25,37.42v7.94A98.84,98.84,0,0,0,228,674a92,92,0,0,0,20.35,31,95.3,95.3,0,0,0,32.77,21.39q19.32,7.75,44.16,7.76,25.17,0,44.49-7.76A92.54,92.54,0,0,0,422.59,674a98.84,98.84,0,0,0,6.9-36.74v-7.94a98,98,0,0,0-7.25-37.42A93.63,93.63,0,0,0,401.55,560.69ZM368.44,661.07a43.34,43.34,0,0,1-16.22,19.32q-10.7,6.9-26.9,6.9-15.52,0-26.57-6.9a42.48,42.48,0,0,1-16.55-19.32,67.18,67.18,0,0,1-5.52-27.6q0-16.2,5.69-28.45A44.79,44.79,0,0,1,299.1,585.7q11-7.07,26.22-7.07,15.51,0,26.38,7.07A45.15,45.15,0,0,1,368.26,605q5.7,12.24,5.7,28.45A67.35,67.35,0,0,1,368.44,661.07Z"/><path class="cls-1" d="M730.46,542.24q-14.67-9.84-36.05-9.84H692q-21,0-35.53,9.84t-21.9,29.14c-.27.69-.45,1.48-.69,2.18-.25-.7-.43-1.49-.69-2.18q-7.43-19.3-21.74-29.14t-35.7-9.84h-2.41q-21,0-35.53,9.84t-21.74,29.14a101.47,101.47,0,0,0-4.13,15.18V538.27H467.78v189h55.54V617.61q0-15.87,8.62-25.7t23.8-9.83q14.49,0,22.6,9.66t8.1,24.83V727.3H642V617.61q0-15.87,8.62-25.7t23.46-9.83q14.84,0,22.77,9.66t7.93,24.83V727.3H760.3V619.68q0-29-7.59-48.3T730.46,542.24Z"/><polygon class="cls-1" points="790.65 538.27 790.65 579.32 815.83 579.32 815.83 727.3 871.37 727.3 871.37 579.32 871.37 538.27 815.83 538.27 790.65 538.27"/><path class="cls-1" d="M1032.46,532.4h-2.41q-21.74,0-36.91,9.66t-22.6,29a101.32,101.32,0,0,0-4.31,15.54V538.27H922.08v189h55.54v-110q0-15.85,9.48-25.52t25-9.66q15.17,0,24,9.48t8.8,24.67V727.3h55.54v-108q0-43.8-17.42-65.37T1032.46,532.4Z"/><path class="cls-1" d="M1295,568.45q-10.35-16.73-30.19-25T1216,535.16q-10,0-21.38.35t-22.08,1q-10.69.71-19,1.38v46.57q10.68-.69,24-1.21t25.7-.86q12.42-.33,20-.34,15.16,0,22.07,7.07t6.9,21.9v.35H1218q-25.18,0-44.5,6.38t-30,19.66q-10.69,13.29-10.69,34,0,19,8.62,32.6a55.89,55.89,0,0,0,24,20.87q15.35,7.25,35.7,7.24,19.66,0,33.29-7.24a53,53,0,0,0,21.39-20.7,66.76,66.76,0,0,0,5.69-13.4V727.3h43.81V611.4Q1305.32,585.18,1295,568.45Zm-60.54,122.11a40.91,40.91,0,0,1-16.73,3.28q-14.49,0-22.25-7.07t-7.76-18.46q0-12.06,7.76-19.14t22.25-7.07h34.49v15.18q-.69,14.15-5.52,22.07A27.13,27.13,0,0,1,1234.43,690.56Z"/><path class="cls-1" d="M166.4,565.32a97.86,97.86,0,0,0-32.59-19.81q-19.14-7.25-43.64-7.24H0v189H90.17q25.18,0,44.5-7.24a94.51,94.51,0,0,0,32.6-20,86.39,86.39,0,0,0,27.08-63.28V629.4a87.08,87.08,0,0,0-27.95-64.08ZM133.29,659a41.24,41.24,0,0,1-16.21,18q-10.69,6.45-26.91,6.45H55.54V582.06H90.17q15.52,0,26.39,6.61a43.28,43.28,0,0,1,16.56,18q5.69,11.43,5.69,26.57A59.14,59.14,0,0,1,133.29,659Z"/><path class="cls-1" d="M507.56,912.13a88.19,88.19,0,0,0-29.73-19.81q-17.46-7.25-39.8-7.24H355.79v189H438q23,0,40.59-7.24a85.37,85.37,0,0,0,29.73-20,87.36,87.36,0,0,0,18.4-29,94.08,94.08,0,0,0,6.29-34.3v-7.41a93.66,93.66,0,0,0-6.6-34.94A87.67,87.67,0,0,0,507.56,912.13Zm-16.39,101.25a53.36,53.36,0,0,1-21.1,23.22q-13.94,8.3-35,8.29H390V914.3h45.08q20.2,0,34.34,8.5A55.83,55.83,0,0,1,490.94,946q7.41,14.73,7.41,34.2A75.59,75.59,0,0,1,491.17,1013.38Z"/><path class="cls-1" d="M711.42,892.58q-19.87-13.2-50.5-13.2-23.59,0-41,8.26a81.13,81.13,0,0,0-28.7,22.18A94.28,94.28,0,0,0,574.51,941a117.31,117.31,0,0,0-5.45,35.55v6.32a116.33,116.33,0,0,0,5.45,35.21,94.09,94.09,0,0,0,16.71,31.14q11.26,13.92,29.23,22.35T663,1080q22.17,0,39.77-7.4a73.38,73.38,0,0,0,44.7-54.9H715.83q-2.82,13-16.73,22.88T663,1050.44q-21.12,0-34.84-9.33A54.73,54.73,0,0,1,608,1015.76a90.44,90.44,0,0,1-6.15-27.2H750.67V970.88A103.75,103.75,0,0,0,741,926.54,81.6,81.6,0,0,0,711.42,892.58ZM603,960.68a83.11,83.11,0,0,1,5-17.59,55.09,55.09,0,0,1,19.71-25q13.19-9.14,33.26-9.15,19.35,0,32,8.1a49.59,49.59,0,0,1,19,22.7,77.25,77.25,0,0,1,5.41,20.94Z"/><polygon class="cls-1" points="916.44 885.71 869.65 1046.91 862.12 1046.91 808.38 885.71 773.19 885.71 837.25 1073.66 845.7 1073.66 861.88 1073.66 871.03 1073.66 886.52 1073.66 893.92 1073.66 949.53 885.71 916.44 885.71"/></svg>