<svg id="Camada_1" data-name="Camada 1" xmlns="http://www.w3.org/2000/svg" viewBox="0 0 1920 304.27"><defs><style>.cls-1{fill:#000144;}.cls-2{fill:#fc561e;}.cls-3{fill:#ede9e0;}</style></defs><path class="cls-1" d="M1767.87,0H0V221.29H83v83H1767.87A152.14,152.14,0,0,0,1920,152.13h0A152.13,152.13,0,0,0,1767.87,0Z"/><path class="cls-2" d="M177.4,54.46l-28.54,61.17a15.62,15.62,0,0,1-26.35,3.15L97.89,88A8.39,8.39,0,0,0,83,93.25V221.34H262.89A27.34,27.34,0,0,0,290.23,194V93.25A8.39,8.39,0,0,0,275.29,88L250.7,118.75a15.65,15.65,0,0,1-26.4-3.16L195.78,54.46A10.14,10.14,0,0,0,177.4,54.46Z"/><path class="cls-3" d="M665.17,99.71a70.47,70.47,0,0,0-23.7-15.42q-13.92-5.66-31.73-5.65a83.32,83.32,0,0,0-31.36,5.65,71.58,71.58,0,0,0-24,15.42,67.19,67.19,0,0,0-15.18,22.7A71.47,71.47,0,0,0,534,149.63v5.77a71.71,71.71,0,0,0,5,26.71,67.07,67.07,0,0,0,14.8,22.58,69.13,69.13,0,0,0,23.83,15.55q14,5.64,32.11,5.65,18.3,0,32.36-5.65a67.24,67.24,0,0,0,38.37-38.13,71.72,71.72,0,0,0,5-26.71v-5.77a71.29,71.29,0,0,0-5.27-27.22A68,68,0,0,0,665.17,99.71Zm-24.08,73a31.41,31.41,0,0,1-11.79,14q-7.77,5-19.56,5-11.29,0-19.32-5a30.94,30.94,0,0,1-12-14,49,49,0,0,1-4-20.07A48.58,48.58,0,0,1,578.51,132a32.63,32.63,0,0,1,12.16-14q8-5.15,19.07-5.14,11.28,0,19.19,5.14a33,33,0,0,1,12,14,48.58,48.58,0,0,1,4.14,20.69A48.81,48.81,0,0,1,641.09,172.71Z"/><path class="cls-3" d="M904.35,86.29q-10.67-7.14-26.22-7.14h-1.75q-15.3,0-25.84,7.14t-15.93,21.2c-.19.5-.32,1.07-.5,1.59-.18-.52-.31-1.09-.5-1.59q-5.4-14-15.8-21.2t-26-7.14h-1.76q-15.3,0-25.83,7.14t-15.81,21.2a75,75,0,0,0-3,11V83.41H713.33V220.87h40.39V141.1q0-11.53,6.27-18.69t17.31-7.14q10.53,0,16.43,7t5.89,18.06v80.52H840V141.1q0-11.53,6.27-18.69t17.06-7.14q10.77,0,16.55,7t5.77,18.06v80.52H926V142.61q0-21.08-5.51-35.12T904.35,86.29Z"/><polygon class="cls-3" points="948.12 83.41 948.12 113.26 966.42 113.26 966.42 220.87 1006.81 220.87 1006.81 113.26 1006.81 83.41 966.42 83.41 948.12 83.41"/><path class="cls-3" d="M1124,79.15h-1.76q-15.8,0-26.83,7t-16.44,21.07a73,73,0,0,0-3.13,11.3V83.41h-32.11V220.87h40.39v-80q0-11.53,6.9-18.56t18.18-7q11,0,17.44,6.89T1133,140.1v80.77h40.39V142.36q0-31.86-12.67-47.54T1124,79.15Z"/><path class="cls-3" d="M1314.84,105.36q-7.53-12.17-21.95-18.19t-35.5-6q-7.28,0-15.55.25c-5.51.17-10.87.42-16,.75s-9.78.67-13.8,1V117q7.77-.49,17.44-.88t18.68-.62q9-.26,14.55-.25,11,0,16.06,5.14t5,15.93v.25H1258.9q-18.32,0-32.36,4.64t-21.82,14.3q-7.77,9.65-7.78,24.7,0,13.8,6.27,23.71a40.61,40.61,0,0,0,17.44,15.17q11.16,5.26,26,5.27,14.3,0,24.2-5.27a38.52,38.52,0,0,0,15.56-15.05,48.13,48.13,0,0,0,4.14-9.74v26.55h31.85V136.59Q1322.36,117.53,1314.84,105.36Zm-44,88.79a29.75,29.75,0,0,1-12.16,2.39q-10.53,0-16.18-5.14a17.33,17.33,0,0,1-5.64-13.43q0-8.78,5.64-13.92t16.18-5.14h25.08v11q-.49,10.29-4,16.05A19.69,19.69,0,0,1,1270.81,194.15Z"/><path class="cls-3" d="M494.18,103.08a71.09,71.09,0,0,0-23.7-14.4q-13.92-5.27-31.73-5.27H373.18V220.87h65.57q18.3,0,32.36-5.27a68.53,68.53,0,0,0,23.7-14.52,62.84,62.84,0,0,0,19.69-46v-5.39a62.67,62.67,0,0,0-5.27-25.41A63.37,63.37,0,0,0,494.18,103.08ZM470.1,171.22a30,30,0,0,1-11.78,13.12Q450.54,189,438.75,189H413.56V115.26h25.19q11.28,0,19.19,4.8a31.42,31.42,0,0,1,12,13.11,46.4,46.4,0,0,1,.12,38.05Z"/><path class="cls-3" d="M1515.67,103.08a64.1,64.1,0,0,0-21.62-14.4q-12.69-5.27-28.94-5.27h-59.8V220.87h59.8q16.7,0,29.51-5.27a61.82,61.82,0,0,0,21.62-14.52A63.62,63.62,0,0,0,1529.63,180a68.55,68.55,0,0,0,4.57-24.94v-5.39a68.08,68.08,0,0,0-4.8-25.41A63.72,63.72,0,0,0,1515.67,103.08Zm-11.92,73.63a38.79,38.79,0,0,1-15.34,16.88q-10.12,6-25.47,6h-32.77v-95h32.77q14.7,0,25,6.18a40.68,40.68,0,0,1,15.67,16.88q5.39,10.71,5.39,24.87A54.93,54.93,0,0,1,1503.75,176.71Z"/><path class="cls-3" d="M1663.91,88.86q-14.45-9.58-36.72-9.6-17.16,0-29.82,6a59,59,0,0,0-20.86,16.12,68.49,68.49,0,0,0-12.15,22.66,85,85,0,0,0-4,25.85v4.6a84.26,84.26,0,0,0,4,25.6,68.21,68.21,0,0,0,12.15,22.64A59.2,59.2,0,0,0,1597.76,219q13,6.13,31,6.14a74,74,0,0,0,28.93-5.38,53.32,53.32,0,0,0,32.5-39.92h-23q-2.05,9.48-12.17,16.63t-26.23,7.17q-15.35,0-25.33-6.78a39.87,39.87,0,0,1-14.72-18.43,65.88,65.88,0,0,1-4.47-19.78h108.25V145.8a75.45,75.45,0,0,0-7-32.24A59.39,59.39,0,0,0,1663.91,88.86Zm-78.84,49.53a60.94,60.94,0,0,1,3.6-12.8A40.07,40.07,0,0,1,1603,107.42q9.6-6.66,24.19-6.66,14.07,0,23.29,5.89a36.07,36.07,0,0,1,13.82,16.51,55.83,55.83,0,0,1,3.93,15.23Z"/><polygon class="cls-3" points="1813 83.87 1778.97 201.09 1773.49 201.09 1734.42 83.87 1708.83 83.87 1755.41 220.54 1761.56 220.54 1773.32 220.54 1779.98 220.54 1791.24 220.54 1796.62 220.54 1837.06 83.87 1813 83.87"/></svg>