<svg id="Camada_1" data-name="Camada 1" xmlns="http://www.w3.org/2000/svg" viewBox="0 0 1920 304.27"><defs><style>.cls-1{fill:#fff;}</style></defs><path class="cls-1" d="M1360.87,120.78q-7.81-4.69-19-4.7H1317v72.11h24.89q11.65,0,19.34-4.58a29.43,29.43,0,0,0,11.65-12.82,44.89,44.89,0,0,0-.13-37.2A30.86,30.86,0,0,0,1360.87,120.78Z"/><path class="cls-1" d="M1174.49,161.18q-4.29,3.91-4.29,10.58a13.14,13.14,0,0,0,4.29,10.19q4.29,3.9,12.28,3.9A22.57,22.57,0,0,0,1196,184a15,15,0,0,0,6.76-6.19q2.67-4.38,3-12.19v-8.38h-19Q1178.78,157.28,1174.49,161.18Z"/><path class="cls-1" d="M708.61,126.14a28.93,28.93,0,0,0-29.05,0,24.78,24.78,0,0,0-9.24,10.66,40.26,40.26,0,0,0-.09,31,23.44,23.44,0,0,0,9.14,10.66A27.1,27.1,0,0,0,694,182.23q9,0,14.86-3.81a23.9,23.9,0,0,0,9-10.66,40.26,40.26,0,0,0-.09-31A25,25,0,0,0,708.61,126.14Z"/><path class="cls-1" d="M578.77,127.78a27.57,27.57,0,0,0-14.57-3.65H545.07v56H564.2q8.94,0,14.85-3.55a22.8,22.8,0,0,0,9-10,32.85,32.85,0,0,0,3-14.23,32.46,32.46,0,0,0-3.14-14.67A23.86,23.86,0,0,0,578.77,127.78Z"/><path class="cls-1" d="M1484.3,117.6q-7-4.47-17.68-4.48-11.07,0-18.37,5.06a30.43,30.43,0,0,0-10.88,13.8,46.09,46.09,0,0,0-2.73,9.72h63.14a42.84,42.84,0,0,0-3-11.57A27.5,27.5,0,0,0,1484.3,117.6Z"/><path class="cls-1" d="M1573.44,36.61H231v168h63V107.42a6.37,6.37,0,0,1,11.35-4l18.69,23.37a11.86,11.86,0,0,0,20-2.4L365.75,78a7.7,7.7,0,0,1,13.95,0l21.66,46.41a11.87,11.87,0,0,0,20,2.4l18.68-23.34a6.37,6.37,0,0,1,11.34,4v76.5a20.75,20.75,0,0,1-20.76,20.76H294.05v63H1573.44A115.52,115.52,0,0,0,1689,152.13h0A115.52,115.52,0,0,0,1573.44,36.61ZM621.72,154.36a47.7,47.7,0,0,1-15,34.94,52.19,52.19,0,0,1-18,11,70,70,0,0,1-24.57,4H514.41V100H564.2a67.68,67.68,0,0,1,24.09,4,54,54,0,0,1,18,10.94A48.22,48.22,0,0,1,617.72,131a47.59,47.59,0,0,1,4,19.29Zm129.84.25a54.56,54.56,0,0,1-3.81,20.29,51.16,51.16,0,0,1-29.14,28.95,72,72,0,0,1-49,0A52.58,52.58,0,0,1,651.56,192a50.84,50.84,0,0,1-11.24-17.14,54.56,54.56,0,0,1-3.81-20.29v-4.38a54.33,54.33,0,0,1,4-20.66A51.07,51.07,0,0,1,652,112.33a54.17,54.17,0,0,1,18.19-11.71,69,69,0,0,1,47.9,0,53.42,53.42,0,0,1,18,11.71,51.66,51.66,0,0,1,11.42,17.24,54.15,54.15,0,0,1,4,20.66Zm182.66,49.72H903.55V143.19q0-8.38-4.38-13.72t-12.57-5.33q-8.19,0-13,5.43t-4.76,14.19v60.57H838.22V143.19q0-8.38-4.48-13.72t-12.47-5.33q-8.38,0-13.14,5.43t-4.77,14.19v60.57H772.7V100h24.38v26.66a56.38,56.38,0,0,1,2.28-8.38q4-10.67,12-16.09T831,96.71h1.34q11.8,0,19.71,5.43t12,16.09c.14.38.24.82.38,1.21.14-.39.24-.83.38-1.21q4.1-10.67,12.1-16.09t19.61-5.43h1.34q11.8,0,19.9,5.43T930,118.23q4.19,10.68,4.19,26.67Zm61.33-81.72v81.72H964.88V122.61H951V100h44.57ZM1122,204.33h-30.67V143q0-8.38-4.86-13.62t-13.23-5.24q-8.58,0-13.81,5.33t-5.24,14.1v60.76h-30.67V100h24.38v26.67a57.46,57.46,0,0,1,2.38-8.58q4.1-10.67,12.48-16t20.38-5.33h1.33q18.29,0,27.91,11.91t9.62,36.09Zm113.13,0H1211V184.17a36.27,36.27,0,0,1-3.14,7.39A29.13,29.13,0,0,1,1196,203q-7.52,4-18.38,4a45.66,45.66,0,0,1-19.71-4,30.76,30.76,0,0,1-13.24-11.52q-4.77-7.53-4.76-18,0-11.43,5.9-18.76t16.57-10.86a78.27,78.27,0,0,1,24.57-3.52h18.86v-.19q0-8.19-3.81-12.1t-12.19-3.9q-4.18,0-11,.19t-14.19.47c-4.88.2-9.3.42-13.23.67V99.76q4.58-.39,10.47-.76t12.19-.57q6.29-.2,11.81-.19,16,0,27,4.57a34.63,34.63,0,0,1,16.67,13.8q5.71,9.24,5.71,23.72Zm160.86-50a52.17,52.17,0,0,1-3.47,18.94,48.33,48.33,0,0,1-10.17,16,47,47,0,0,1-16.41,11,58.72,58.72,0,0,1-22.41,4h-45.41V100h45.41a56.81,56.81,0,0,1,22,4,48,48,0,0,1,26.84,27,51.45,51.45,0,0,1,3.65,19.29Zm120.17,2.73H1434a50,50,0,0,0,3.39,15,30.3,30.3,0,0,0,11.17,14q7.59,5.16,19.24,5.15,12.24,0,19.92-5.44t9.24-12.63h17.49a40.56,40.56,0,0,1-24.68,30.31,56.16,56.16,0,0,1-22,4.09q-13.6,0-23.51-4.67a44.83,44.83,0,0,1-16.13-12.34,52,52,0,0,1-9.23-17.19,64.09,64.09,0,0,1-3-19.44v-3.5a64.53,64.53,0,0,1,3-19.62,52.09,52.09,0,0,1,9.23-17.21A44.69,44.69,0,0,1,1444,101.37q9.62-4.56,22.64-4.57,16.91,0,27.89,7.29a45.13,45.13,0,0,1,16.32,18.75,57.34,57.34,0,0,1,5.35,24.49Zm79.09,47H1564L1528.61,100.3H1548l29.67,89h4.16l25.84-89H1626Z"/></svg>