<svg id="Camada_1" data-name="Camada 1" xmlns="http://www.w3.org/2000/svg" viewBox="0 0 1920 304.27"><path d="M1650.48,106.65q-9.21-5.88-23.29-5.89-14.58,0-24.19,6.66a40.07,40.07,0,0,0-14.33,18.17,60.94,60.94,0,0,0-3.6,12.8h83.16a55.83,55.83,0,0,0-3.93-15.23A36.07,36.07,0,0,0,1650.48,106.65Z"/><path d="M1487.92,110.84q-10.29-6.18-25-6.18h-32.77v95h32.77q15.35,0,25.47-6a38.79,38.79,0,0,0,15.34-16.88,54.93,54.93,0,0,0,5.23-24.12q0-14.16-5.39-24.87A40.68,40.68,0,0,0,1487.92,110.84Z"/><path d="M457.94,120.06q-7.9-4.8-19.19-4.8H413.56V189h25.19q11.79,0,19.57-4.68a30,30,0,0,0,11.78-13.12,46.4,46.4,0,0,0-.12-38.05A31.42,31.42,0,0,0,457.94,120.06Z"/><path d="M1767.87,0H0V221.29H83v-128A8.39,8.39,0,0,1,97.89,88l24.62,30.77a15.62,15.62,0,0,0,26.35-3.15L177.4,54.46a10.14,10.14,0,0,1,18.38,0l28.52,61.13a15.65,15.65,0,0,0,26.4,3.16L275.29,88a8.39,8.39,0,0,1,14.94,5.24V194a27.34,27.34,0,0,1-27.34,27.34H83v82.93H1767.87A152.14,152.14,0,0,0,1920,152.13h0A152.13,152.13,0,0,0,1767.87,0ZM514.5,155.07a62.84,62.84,0,0,1-19.69,46,68.53,68.53,0,0,1-23.7,14.52q-14.06,5.27-32.36,5.27H373.18V83.41h65.57q17.81,0,31.73,5.27a71.09,71.09,0,0,1,23.7,14.4,63.37,63.37,0,0,1,15.05,21.19,62.67,62.67,0,0,1,5.27,25.41Zm171,.33a71.72,71.72,0,0,1-5,26.71,67.24,67.24,0,0,1-38.37,38.13q-14.05,5.64-32.36,5.65-18.06,0-32.11-5.65a69.13,69.13,0,0,1-23.83-15.55A67.07,67.07,0,0,1,539,182.11a71.71,71.71,0,0,1-5-26.71v-5.77a71.47,71.47,0,0,1,5.26-27.22,67.19,67.19,0,0,1,15.18-22.7,71.58,71.58,0,0,1,24-15.42,83.32,83.32,0,0,1,31.36-5.65q17.81,0,31.73,5.65a70.47,70.47,0,0,1,23.7,15.42,68,68,0,0,1,15.05,22.7,71.29,71.29,0,0,1,5.27,27.22ZM926,220.87H885.66V140.35q0-11-5.77-18.06t-16.55-7q-10.8,0-17.06,7.14T840,141.1v79.77H799.62V140.35q0-11-5.89-18.06t-16.43-7q-11,0-17.31,7.14t-6.27,18.69v79.77H713.33V83.41h32.11v35.12a75,75,0,0,1,3-11q5.26-14,15.81-21.2t25.83-7.14h1.76q15.54,0,26,7.14t15.8,21.2c.19.5.32,1.07.5,1.59.18-.52.31-1.09.5-1.59q5.4-14,15.93-21.2t25.84-7.14h1.75q15.55,0,26.22,7.14t16.18,21.2Q926,121.55,926,142.61Zm80.77-107.61V220.87H966.42V113.26H948.11V83.41h58.7Zm166.56,107.61H1133V140.1q0-11-6.39-17.94t-17.44-6.89q-11.28,0-18.18,7t-6.9,18.56v80h-40.39V83.41h32.11v35.13a73,73,0,0,1,3.13-11.3q5.4-14,16.44-21.07t26.83-7H1124q24.09,0,36.75,15.67t12.67,47.54Zm149,0h-31.85V194.32a48.13,48.13,0,0,1-4.14,9.74,38.52,38.52,0,0,1-15.56,15.05q-9.9,5.26-24.2,5.27-14.8,0-26-5.27a40.61,40.61,0,0,1-17.44-15.17q-6.27-9.91-6.27-23.71,0-15,7.78-24.7t21.82-14.3q14.06-4.64,32.36-4.64h24.83v-.25q0-10.78-5-15.93t-16.06-5.14q-5.52,0-14.55.25t-18.68.62q-9.66.38-17.44.88V83.16c4-.34,8.61-.67,13.8-1s10.54-.58,16-.75,10.7-.25,15.55-.25q21.08,0,35.5,6t21.95,18.19q7.52,12.17,7.52,31.23Zm211.84-65.8a68.55,68.55,0,0,1-4.57,24.94,63.62,63.62,0,0,1-13.39,21.07,61.82,61.82,0,0,1-21.62,14.52q-12.81,5.27-29.51,5.27h-59.8V83.41h59.8q16.25,0,28.94,5.27a63.17,63.17,0,0,1,35.35,35.59,68.08,68.08,0,0,1,4.8,25.41Zm158.25,3.59H1584.2a65.88,65.88,0,0,0,4.47,19.78,39.87,39.87,0,0,0,14.72,18.43q10,6.78,25.33,6.78,16.13,0,26.23-7.17t12.17-16.63h23a53.32,53.32,0,0,1-32.5,39.92,74,74,0,0,1-28.93,5.38q-17.91,0-31-6.14a59.2,59.2,0,0,1-21.25-16.26,68.21,68.21,0,0,1-12.15-22.64,84.26,84.26,0,0,1-4-25.6v-4.6a85,85,0,0,1,4-25.85,68.49,68.49,0,0,1,12.15-22.66,59,59,0,0,1,20.86-16.12q12.68-6,29.82-6,22.26,0,36.72,9.6a59.39,59.39,0,0,1,21.5,24.7,75.45,75.45,0,0,1,7,32.24Zm104.17,61.88h-41.21L1708.83,83.87h25.59l39.07,117.22H1779l34-117.22h24Z"/><path d="M628.93,117.9q-7.9-5.15-19.19-5.14-11,0-19.07,5.14a32.63,32.63,0,0,0-12.16,14,48.58,48.58,0,0,0-4.14,20.69,49,49,0,0,0,4,20.07,30.94,30.94,0,0,0,12,14q8,5,19.32,5,11.79,0,19.56-5a31.41,31.41,0,0,0,11.79-14,48.81,48.81,0,0,0,4-20.07A48.58,48.58,0,0,0,641,132,33,33,0,0,0,628.93,117.9Z"/><path d="M1242.47,164.05q-5.64,5.14-5.64,13.92a17.33,17.33,0,0,0,5.64,13.43q5.64,5.13,16.18,5.14a29.75,29.75,0,0,0,12.16-2.39,19.69,19.69,0,0,0,8.91-8.15q3.51-5.76,4-16.05v-11h-25.08Q1248.12,158.91,1242.47,164.05Z"/></svg>