<svg width="25" height="25" viewBox="0 0 27 30" fill="none" xmlns="http://www.w3.org/2000/svg">
<path d="M8.13376 2.98125C6.34799 3.47341 4.57435 4.00856 2.81438 4.58625C2.65368 4.63831 2.51082 4.73446 2.40209 4.86374C2.29336 4.99302 2.22312 5.15025 2.19939 5.3175C1.16064 13.1119 3.56064 18.7987 6.42376 22.545C7.63598 24.147 9.0814 25.5583 10.7119 26.7319C11.3606 27.1894 11.9344 27.5194 12.3863 27.7313C12.6113 27.8381 12.795 27.9094 12.9356 27.9525C12.9971 27.9741 13.0605 27.9898 13.125 27.9994C13.1887 27.989 13.2514 27.9733 13.3125 27.9525C13.455 27.9094 13.6388 27.8381 13.8638 27.7313C14.3138 27.5194 14.8894 27.1875 15.5381 26.7319C17.1686 25.5583 18.614 24.147 19.8263 22.545C22.6894 18.8006 25.0894 13.1119 24.0506 5.3175C24.0271 5.15017 23.957 4.99284 23.8482 4.86352C23.7394 4.7342 23.5965 4.63811 23.4356 4.58625C22.215 4.18688 20.1544 3.53625 18.1163 2.98312C16.035 2.41875 14.1206 2.00063 13.125 2.00063C12.1313 2.00063 10.215 2.41875 8.13376 2.98312V2.98125ZM7.63501 1.05C9.66938 0.496875 11.8313 0 13.125 0C14.4188 0 16.5806 0.496875 18.615 1.05C20.6963 1.6125 22.7944 2.27812 24.0281 2.68125C24.544 2.8516 25.0013 3.164 25.3475 3.58256C25.6938 4.00113 25.915 4.50889 25.9856 5.0475C27.1031 13.4419 24.51 19.6631 21.3638 23.7787C20.0296 25.5393 18.4387 27.0897 16.6444 28.3781C16.0239 28.824 15.3665 29.216 14.6794 29.55C14.1544 29.7975 13.59 30 13.125 30C12.66 30 12.0975 29.7975 11.5706 29.55C10.8835 29.216 10.2261 28.824 9.60563 28.3781C7.81131 27.0897 6.22048 25.5393 4.88626 23.7787C1.74001 19.6631 -0.853115 13.4419 0.264385 5.0475C0.335049 4.50889 0.556216 4.00113 0.902479 3.58256C1.24874 3.164 1.70606 2.8516 2.22188 2.68125C4.01287 2.09402 5.81777 1.55011 7.63501 1.05Z" fill="black"/>
<path d="M18.4761 9.64896C18.5634 9.73605 18.6327 9.8395 18.6799 9.9534C18.7272 10.0673 18.7515 10.1894 18.7515 10.3127C18.7515 10.436 18.7272 10.5581 18.6799 10.672C18.6327 10.7859 18.5634 10.8894 18.4761 10.9765L12.8511 16.6015C12.764 16.6888 12.6606 16.758 12.5467 16.8053C12.4328 16.8526 12.3107 16.8769 12.1873 16.8769C12.064 16.8769 11.9419 16.8526 11.828 16.8053C11.7141 16.758 11.6107 16.6888 11.5236 16.6015L8.71109 13.789C8.62393 13.7018 8.55478 13.5983 8.50761 13.4844C8.46044 13.3705 8.43616 13.2485 8.43616 13.1252C8.43616 13.0019 8.46044 12.8799 8.50761 12.766C8.55478 12.6521 8.62393 12.5486 8.71109 12.4615C8.79826 12.3743 8.90174 12.3052 9.01562 12.258C9.12951 12.2108 9.25157 12.1865 9.37484 12.1865C9.49811 12.1865 9.62017 12.2108 9.73406 12.258C9.84795 12.3052 9.95143 12.3743 10.0386 12.4615L12.1873 14.6121L17.1486 9.64896C17.2357 9.56165 17.3391 9.49239 17.453 9.44512C17.5669 9.39786 17.689 9.37354 17.8123 9.37354C17.9357 9.37354 18.0578 9.39786 18.1717 9.44512C18.2856 9.49239 18.389 9.56165 18.4761 9.64896Z" fill="black"/>
</svg>
