<svg width="25" height="25" viewBox="0 0 23 30" fill="none" xmlns="http://www.w3.org/2000/svg">
<path d="M8.11429 16.7L11.4286 14.1857L14.7286 16.7L13.4714 12.6286L16.7857 10H12.7286L11.4286 5.98571L10.1286 10H6.07143L9.37143 12.6286L8.11429 16.7ZM22.8571 11.4286C22.8571 5.11429 17.7429 0 11.4286 0C5.11429 0 0 5.11429 0 11.4286C0 14.3286 1.08571 16.9571 2.85714 18.9714V30L11.4286 27.1429L20 30V18.9714C21.842 16.8907 22.8584 14.2075 22.8571 11.4286ZM11.4286 2.85714C16.1571 2.85714 20 6.7 20 11.4286C20 16.1571 16.1571 20 11.4286 20C6.7 20 2.85714 16.1571 2.85714 11.4286C2.85714 6.7 6.7 2.85714 11.4286 2.85714ZM11.4286 24.2857L5.71429 25.7429V21.3143C7.4 22.2857 9.34286 22.8571 11.4286 22.8571C13.5143 22.8571 15.4571 22.2857 17.1429 21.3143V25.7429L11.4286 24.2857Z" fill="black"/>
</svg>
