<svg width="25" height="25" viewBox="0 0 27 25" fill="none" xmlns="http://www.w3.org/2000/svg">
<path d="M4.80782 1.85782e-06C4.62941 7.84472e-06 4.45451 0.049654 4.30271 0.143386C4.1509 0.237118 4.02817 0.37124 3.94824 0.530745L0.102277 8.22268C0.0191018 8.38829 -0.0144399 8.57441 0.00568868 8.75863C0.0258172 8.94286 0.0987582 9.11735 0.215733 9.26109L12.7151 24.645C12.8053 24.7559 12.919 24.8453 13.0481 24.9067C13.1772 24.9681 13.3183 25 13.4612 25C13.6042 25 13.7453 24.9681 13.8744 24.9067C14.0035 24.8453 14.1172 24.7559 14.2074 24.645L26.7067 9.26109C26.824 9.11754 26.8973 8.94315 26.9178 8.75892C26.9383 8.57469 26.905 8.38847 26.8221 8.22268L22.9762 0.530745C22.8961 0.370947 22.7731 0.236633 22.6209 0.142881C22.4687 0.0491285 22.2934 -0.000349448 22.1147 1.85782e-06H4.80782ZM2.51754 7.69193L5.40202 1.92298H9.34413L7.9019 7.69193H2.51754ZM2.98098 9.61492H7.94805L11.0498 19.5452L2.98098 9.61492ZM9.96141 9.61492H16.9611L13.4612 20.8124L9.96141 9.61492ZM18.9764 9.61492H23.9415L15.8727 19.5452L18.9764 9.61492ZM24.4049 7.69193H19.0206L17.5783 1.92298H21.5205L24.4049 7.69193ZM17.038 7.69193H9.88449L11.3267 1.92298H15.5958L17.038 7.69193Z" fill="black"/>
</svg>
