<svg id="Camada_1" data-name="Camada 1" xmlns="http://www.w3.org/2000/svg" viewBox="0 0 800 126.78"><defs><style>.cls-1{fill:#000144;}.cls-2{fill:#fc561e;}.cls-3{fill:#ede9e0;}.cls-4{fill:none;stroke:#fc561e;stroke-miterlimit:10;}.cls-5{fill:#fff;}</style></defs><path class="cls-1" d="M736.61,0H0V92.2H34.58v34.58h702A63.39,63.39,0,0,0,800,63.39h0A63.39,63.39,0,0,0,736.61,0Z"/><path class="cls-2" d="M194.21,29.43h281a11.25,11.25,0,0,1,11.25,11.25V59.21a11.25,11.25,0,0,1-11.25,11.25H183a0,0,0,0,1,0,0V40.67A11.25,11.25,0,0,1,194.21,29.43Z"/><path class="cls-3" d="M73.92,22.69,62,48.18a6.52,6.52,0,0,1-11,1.31L40.79,36.67a3.5,3.5,0,0,0-6.23,2.19V92.22h75a11.39,11.39,0,0,0,11.39-11.39v-42a3.5,3.5,0,0,0-6.23-2.18L104.46,49.48a6.52,6.52,0,0,1-11-1.32L81.57,22.69A4.22,4.22,0,0,0,73.92,22.69Z"/><path class="cls-1" d="M201.5,58,195.63,39.5h3.72l4.89,16L203.17,55h2.74l-1.09.51,4.5-16h3.6L207.45,58Z"/><path class="cls-1" d="M213.88,46.87V44.24h5.44v2.63Zm3.21-4.28a2,2,0,0,1-1.53-.53,2.19,2.19,0,0,1,0-2.76,2,2,0,0,1,1.53-.53,1.76,1.76,0,0,1,2,1.9,2,2,0,0,1-.48,1.39A2,2,0,0,1,217.09,42.59ZM215.8,58V44.24h3.52V58Z"/><path class="cls-1" d="M221.6,46.82V44.24h9.72v2.58Zm7.74,11.34a8.52,8.52,0,0,1-3.15-.5A3.38,3.38,0,0,1,224.37,56a7,7,0,0,1-.59-3.17V40.36h3.31l0,12.68a1.9,1.9,0,0,0,2.1,2.11h2.15v3Z"/><path class="cls-1" d="M240.81,58.46a8.21,8.21,0,0,1-3.21-.58,7,7,0,0,1-2.36-1.57,6.74,6.74,0,0,1-1.45-2.25,7.26,7.26,0,0,1-.5-2.66v-.53a7.24,7.24,0,0,1,.51-2.7,7,7,0,0,1,1.48-2.28,6.79,6.79,0,0,1,2.38-1.56,8.34,8.34,0,0,1,3.15-.57,8.25,8.25,0,0,1,3.14.57,6.71,6.71,0,0,1,2.36,1.56,7,7,0,0,1,1.49,2.28,7.44,7.44,0,0,1,.5,2.7v.53a7.26,7.26,0,0,1-.49,2.66,6.76,6.76,0,0,1-1.46,2.25A7,7,0,0,1,244,57.88,8.18,8.18,0,0,1,240.81,58.46Zm0-3a3.9,3.9,0,0,0,2.15-.57,3.76,3.76,0,0,0,1.36-1.54,5.09,5.09,0,0,0,.46-2.22,5,5,0,0,0-.48-2.23,3.79,3.79,0,0,0-1.36-1.55,3.85,3.85,0,0,0-2.13-.57,3.91,3.91,0,0,0-2.14.57,3.77,3.77,0,0,0-1.38,1.55,5,5,0,0,0-.48,2.23,5.1,5.1,0,0,0,.47,2.22,3.67,3.67,0,0,0,1.35,1.54A4,4,0,0,0,240.81,55.45Z"/><path class="cls-1" d="M251.39,58V44.24h2.78v5.82h-.07a6.88,6.88,0,0,1,1.26-4.47,4.57,4.57,0,0,1,3.72-1.53h.51v3.06h-1a3.37,3.37,0,0,0-3.72,3.72V58Z"/><path class="cls-1" d="M267.69,58V39.5h4.91l4.63,11h.46l4.6-11h5V58h-3.57V42.21l.46,0-5,12h-3.67l-5-12,.48,0V58Z"/><path class="cls-1" d="M295.43,58.33a5.91,5.91,0,0,1-2.61-.53,4,4,0,0,1-1.73-1.52,4.31,4.31,0,0,1-.62-2.38,3.94,3.94,0,0,1,.73-2.47A4.34,4.34,0,0,1,293.3,50a9.64,9.64,0,0,1,3.19-.48h3.17v2.13h-3.22a2.68,2.68,0,0,0-1.86.58,2.13,2.13,0,0,0,0,3,2.68,2.68,0,0,0,1.86.58,3.4,3.4,0,0,0,1.36-.27,2.22,2.22,0,0,0,1-.91,3.65,3.65,0,0,0,.46-1.76l.86,1a5.94,5.94,0,0,1-.7,2.43,3.81,3.81,0,0,1-1.57,1.51A5.33,5.33,0,0,1,295.43,58.33Zm4.43-.35V53.9h-.58V49.37a2.39,2.39,0,0,0-.59-1.75,2.34,2.34,0,0,0-1.77-.6l-1.52,0-1.78.06c-.6,0-1.14,0-1.61.09v-3l1.31-.1q.72,0,1.5-.06l1.47,0a9.67,9.67,0,0,1,3.53.56A4.19,4.19,0,0,1,302,46.35a6,6,0,0,1,.72,3.13V58Z"/><path class="cls-1" d="M312.51,58.46a7.49,7.49,0,0,1-3.08-.59,6.08,6.08,0,0,1-2.18-1.62A7.12,7.12,0,0,1,306,54a8,8,0,0,1-.43-2.59v-.48a8.3,8.3,0,0,1,.44-2.67A6.7,6.7,0,0,1,307.29,46a6.29,6.29,0,0,1,2.17-1.6,7.19,7.19,0,0,1,3-.59,7.34,7.34,0,0,1,3.24.69A5.78,5.78,0,0,1,318,46.39a5.61,5.61,0,0,1,.95,2.88H315.5a2.82,2.82,0,0,0-.89-1.76,2.94,2.94,0,0,0-2.12-.72,3.18,3.18,0,0,0-1.91.56,3.25,3.25,0,0,0-1.15,1.53,6,6,0,0,0-.38,2.24,6.39,6.39,0,0,0,.36,2.2,3,3,0,0,0,3.1,2.1,3.68,3.68,0,0,0,1.6-.32,2.68,2.68,0,0,0,1.05-.92,2.79,2.79,0,0,0,.47-1.31h3.44a5.54,5.54,0,0,1-1,2.92,5.93,5.93,0,0,1-2.3,2A7.16,7.16,0,0,1,312.51,58.46Z"/><path class="cls-1" d="M328,58.46a7.3,7.3,0,0,1-3.1-.61,6.18,6.18,0,0,1-2.2-1.63,6.82,6.82,0,0,1-1.32-2.29,7.61,7.61,0,0,1-.44-2.58v-.48a8,8,0,0,1,.44-2.65,6.82,6.82,0,0,1,1.3-2.27,6.29,6.29,0,0,1,2.17-1.6,7.11,7.11,0,0,1,3-.59,6.72,6.72,0,0,1,3.73,1,6.23,6.23,0,0,1,2.27,2.56,7.83,7.83,0,0,1,.75,3.4V52H322.46V49.81h10l-1.07,1.06a5.81,5.81,0,0,0-.39-2.25,3.1,3.1,0,0,0-1.15-1.45,3.92,3.92,0,0,0-3.9,0,3.36,3.36,0,0,0-1.23,1.53,6.26,6.26,0,0,0-.41,2.38,6,6,0,0,0,.4,2.29A3.41,3.41,0,0,0,325.9,55a4.32,4.32,0,0,0,4.2.05,2.28,2.28,0,0,0,1-1.28h3.27a5.76,5.76,0,0,1-1.17,2.48,5.67,5.67,0,0,1-2.19,1.65A7.4,7.4,0,0,1,328,58.46Z"/><path class="cls-1" d="M343.27,58.44a6.51,6.51,0,0,1-2.68-.54,6.13,6.13,0,0,1-2.08-1.48,6.62,6.62,0,0,1-1.37-2.24,7.88,7.88,0,0,1-.48-2.78v-.53a8.32,8.32,0,0,1,.45-2.76,6.82,6.82,0,0,1,1.32-2.25,6.14,6.14,0,0,1,2.05-1.51,6.35,6.35,0,0,1,2.66-.54,5.79,5.79,0,0,1,2.86.69,4.91,4.91,0,0,1,2,2.09,8.21,8.21,0,0,1,.8,3.49l-1-1.19V39.5h3.54V58h-2.81V52.16h.61a7.7,7.7,0,0,1-.86,3.48,5.15,5.15,0,0,1-2.06,2.1A6,6,0,0,1,343.27,58.44Zm.78-3a3.89,3.89,0,0,0,1.89-.46,3.58,3.58,0,0,0,1.36-1.37,4.1,4.1,0,0,0,.52-2.11v-1a3.73,3.73,0,0,0-.53-2,3.56,3.56,0,0,0-1.39-1.28,4.07,4.07,0,0,0-1.85-.44,3.65,3.65,0,0,0-2,.55,3.93,3.93,0,0,0-1.37,1.54,5.54,5.54,0,0,0,0,4.58,3.66,3.66,0,0,0,3.37,2Z"/><path class="cls-1" d="M361.87,58.46a8.26,8.26,0,0,1-3.22-.58,7.07,7.07,0,0,1-2.35-1.57,6.76,6.76,0,0,1-1.46-2.25,7.47,7.47,0,0,1-.49-2.66v-.53a7.24,7.24,0,0,1,.51-2.7,6.75,6.75,0,0,1,3.86-3.84,9,9,0,0,1,6.29,0,6.9,6.9,0,0,1,2.36,1.56,6.79,6.79,0,0,1,1.48,2.28,7.24,7.24,0,0,1,.51,2.7v.53a7.26,7.26,0,0,1-.49,2.66,6.76,6.76,0,0,1-1.46,2.25,7,7,0,0,1-2.35,1.57A8.18,8.18,0,0,1,361.87,58.46Zm0-3a3.9,3.9,0,0,0,2.15-.57,3.67,3.67,0,0,0,1.35-1.54,5,5,0,0,0,.47-2.22,5,5,0,0,0-.48-2.23,3.7,3.7,0,0,0-3.49-2.12,3.91,3.91,0,0,0-2.14.57,3.77,3.77,0,0,0-1.38,1.55,5,5,0,0,0-.48,2.23,5,5,0,0,0,.47,2.22,3.67,3.67,0,0,0,1.35,1.54A4,4,0,0,0,361.87,55.45Z"/><path class="cls-3" d="M196.89,94.2V79.69h2.82V94.2Zm2.42-12.13V79.69h6.09v2.38Zm0,6.09V85.77l5.81,0v2.41Z"/><path class="cls-3" d="M211.32,94.54a3.53,3.53,0,0,1-2.9-1.23,5.59,5.59,0,0,1-1-3.66V83.39h2.77v6.5a2.22,2.22,0,0,0,.55,1.58,2,2,0,0,0,1.51.58,2.08,2.08,0,0,0,1.56-.61,2.26,2.26,0,0,0,.61-1.67V83.39h2.76V94.2H215V89.61h.22a7.68,7.68,0,0,1-.43,2.74A3.36,3.36,0,0,1,213.52,94a3.74,3.74,0,0,1-2.08.55Z"/><path class="cls-3" d="M219.13,81.75V79.69h4.12v2.06Zm1.35,12.45V79.69h2.77V94.2Z"/><path class="cls-3" d="M225.19,81.75V79.69h4.12v2.06Zm1.36,12.45V79.69h2.76V94.2Z"/><path class="cls-3" d="M241.91,94.58a7.71,7.71,0,0,1-3.24-.62,4.61,4.61,0,0,1-2-1.7,4.54,4.54,0,0,1-.68-2.45h2.76a2.19,2.19,0,0,0,1.34,2,4.23,4.23,0,0,0,1.84.34,4.38,4.38,0,0,0,1.74-.3,2.41,2.41,0,0,0,1-.78A1.81,1.81,0,0,0,245,90a1.45,1.45,0,0,0-.65-1.22,4.25,4.25,0,0,0-2-.58L241.06,88a5.52,5.52,0,0,1-3.33-1.31,3.8,3.8,0,0,1-1.25-3,4.12,4.12,0,0,1,2.5-3.94,7.27,7.27,0,0,1,5.62,0,4.19,4.19,0,0,1,1.85,1.62,4.55,4.55,0,0,1,.65,2.45h-2.76a2.29,2.29,0,0,0-.28-1.08,2.15,2.15,0,0,0-.86-.83,3,3,0,0,0-1.45-.31,3,3,0,0,0-1.38.28,2.09,2.09,0,0,0-.82.76,1.91,1.91,0,0,0-.28,1,1.66,1.66,0,0,0,.49,1.19,2.43,2.43,0,0,0,1.57.58l1.26.12a7.88,7.88,0,0,1,2.73.66,4.42,4.42,0,0,1,1.82,1.45,3.65,3.65,0,0,1,.66,2.2,4.16,4.16,0,0,1-.72,2.42A4.62,4.62,0,0,1,245,94,7.84,7.84,0,0,1,241.91,94.58Z"/><path class="cls-3" d="M248.77,85.43v-2h7.63v2Zm6.08,8.91a6.66,6.66,0,0,1-2.47-.39A2.66,2.66,0,0,1,251,92.64a5.49,5.49,0,0,1-.47-2.5V80.36h2.6l0,10a1.66,1.66,0,0,0,.43,1.22,1.64,1.64,0,0,0,1.22.43h1.69v2.37Z"/><path class="cls-3" d="M261.73,94.48a4.72,4.72,0,0,1-2.05-.42,3.29,3.29,0,0,1-1.36-1.19,3.49,3.49,0,0,1-.49-1.87,3.14,3.14,0,0,1,.58-2,3.46,3.46,0,0,1,1.65-1.13,7.61,7.61,0,0,1,2.51-.38h2.48v1.67h-2.52a2.11,2.11,0,0,0-1.47.46,1.67,1.67,0,0,0,0,2.38,2.11,2.11,0,0,0,1.47.46,2.67,2.67,0,0,0,1.06-.21,1.78,1.78,0,0,0,.8-.72,2.64,2.64,0,0,0,.36-1.38l.68.78a4.66,4.66,0,0,1-.55,1.91,3,3,0,0,1-1.23,1.18A4.16,4.16,0,0,1,261.73,94.48Zm3.48-.28V91h-.46V87.44a1.64,1.64,0,0,0-1.85-1.85l-1.19,0-1.4,0-1.26.07V83.39l1-.08c.38,0,.77,0,1.18,0h1.16a7.64,7.64,0,0,1,2.77.43,3.38,3.38,0,0,1,1.67,1.39,4.65,4.65,0,0,1,.57,2.45V94.2Z"/><path class="cls-3" d="M275.15,94.58a5.88,5.88,0,0,1-2.43-.47A4.79,4.79,0,0,1,271,92.84a5.52,5.52,0,0,1-1-1.8,6.14,6.14,0,0,1-.34-2v-.38a6.32,6.32,0,0,1,.35-2.09,5.4,5.4,0,0,1,1-1.79,5.07,5.07,0,0,1,1.71-1.26,6.31,6.31,0,0,1,4.92.08,4.64,4.64,0,0,1,1.78,1.52,4.45,4.45,0,0,1,.75,2.27h-2.71A2.18,2.18,0,0,0,276.8,86a2.33,2.33,0,0,0-1.67-.57,2.49,2.49,0,0,0-1.5.44,2.57,2.57,0,0,0-.91,1.2,4.81,4.81,0,0,0-.3,1.76,5,5,0,0,0,.29,1.73,2.42,2.42,0,0,0,2.44,1.65,2.66,2.66,0,0,0,1.25-.26,2.2,2.2,0,0,0,.83-.71,2.31,2.31,0,0,0,.36-1h2.71a4.45,4.45,0,0,1-.77,2.3A4.68,4.68,0,0,1,277.72,94,5.75,5.75,0,0,1,275.15,94.58Z"/><path class="cls-3" d="M282.5,94.2V79.69h2.77V94.2Zm7.56,0-3.62-5h-1.61l4.59-5.75h2.88l-4.23,5.31.06-1.39,5.05,6.88Z"/><path class="cls-3" d="M299.28,94.28V79.59h2.82V94.28Zm2.42,0V91.65h3a5.43,5.43,0,0,0,2-.34,4.27,4.27,0,0,0,1.51-1,4.2,4.2,0,0,0,1-1.5,5.78,5.78,0,0,0,0-3.85,4.05,4.05,0,0,0-2.47-2.43,5.65,5.65,0,0,0-2-.33h-3V79.59h2.83a9.45,9.45,0,0,1,3.43.57,7.2,7.2,0,0,1,2.44,1.58A6.51,6.51,0,0,1,311.87,84a7.33,7.33,0,0,1,.49,2.66v.43a7.17,7.17,0,0,1-.49,2.6A6.64,6.64,0,0,1,310.4,92,7.33,7.33,0,0,1,308,93.66a8.82,8.82,0,0,1-3.43.62Z"/><path class="cls-3" d="M319.48,94.58A5.81,5.81,0,0,1,317,94.1a5,5,0,0,1-1.73-1.28,5.58,5.58,0,0,1-1-1.8,5.9,5.9,0,0,1-.35-2v-.38a6,6,0,0,1,.35-2.07,5.38,5.38,0,0,1,1-1.79,4.94,4.94,0,0,1,1.7-1.26,5.65,5.65,0,0,1,2.36-.46,5.3,5.3,0,0,1,2.93.76,4.86,4.86,0,0,1,1.78,2,6.2,6.2,0,0,1,.59,2.67v1H315.1V87.78h7.81l-.83.83a4.49,4.49,0,0,0-.31-1.77,2.49,2.49,0,0,0-.9-1.13,3,3,0,0,0-3.06,0,2.69,2.69,0,0,0-1,1.2,5.34,5.34,0,0,0,0,3.67,2.66,2.66,0,0,0,1,1.23,2.86,2.86,0,0,0,1.67.45,3,3,0,0,0,1.62-.41,1.79,1.79,0,0,0,.82-1h2.56a4.5,4.5,0,0,1-.91,2,4.57,4.57,0,0,1-1.72,1.29A6,6,0,0,1,319.48,94.58Z"/><path class="cls-3" d="M329,94.2l-3.38-10.8h2.84l3.24,10.8Zm.81,0V91.93h2.92V94.2Zm1.09,0,2.79-10.8h2.66l-2.92,10.8Z"/><path class="cls-3" d="M343.07,94.58a5.73,5.73,0,0,1-2.43-.48,4.92,4.92,0,0,1-1.73-1.28,5.61,5.61,0,0,1-1-1.8,6.15,6.15,0,0,1-.35-2v-.38a6.29,6.29,0,0,1,.35-2.07,5.4,5.4,0,0,1,1-1.79,4.85,4.85,0,0,1,1.7-1.26A5.6,5.6,0,0,1,343,83a5.28,5.28,0,0,1,2.93.76,4.79,4.79,0,0,1,1.78,2,6.07,6.07,0,0,1,.6,2.67v1H338.7V87.78h7.81l-.84.83a4.68,4.68,0,0,0-.3-1.77,2.51,2.51,0,0,0-.91-1.13,2.71,2.71,0,0,0-1.51-.4,2.56,2.56,0,0,0-2.51,1.63,4.77,4.77,0,0,0-.33,1.87,4.59,4.59,0,0,0,.32,1.8,2.64,2.64,0,0,0,1,1.23,2.91,2.91,0,0,0,1.67.45,3,3,0,0,0,1.63-.41,1.83,1.83,0,0,0,.82-1h2.56a4.62,4.62,0,0,1-.91,2,4.73,4.73,0,0,1-1.72,1.29A6,6,0,0,1,343.07,94.58Z"/><path class="cls-3" d="M349.35,81.75V79.69h4.12v2.06ZM350.7,94.2V79.69h2.77V94.2Z"/><path class="cls-3" d="M361.81,94.58a6.58,6.58,0,0,1-2.52-.46,5.76,5.76,0,0,1-1.85-1.23,5.37,5.37,0,0,1-1.14-1.77,5.7,5.7,0,0,1-.39-2.09v-.42a5.58,5.58,0,0,1,.4-2.11,5.26,5.26,0,0,1,1.16-1.79,5.32,5.32,0,0,1,1.87-1.24,6.71,6.71,0,0,1,2.47-.44,6.63,6.63,0,0,1,2.47.44,5.37,5.37,0,0,1,1.86,1.24,5.26,5.26,0,0,1,1.16,1.79,5.58,5.58,0,0,1,.4,2.11V89a5.7,5.7,0,0,1-.39,2.09,5.37,5.37,0,0,1-1.14,1.77,5.76,5.76,0,0,1-1.85,1.23A6.53,6.53,0,0,1,361.81,94.58Zm0-2.37a3,3,0,0,0,1.69-.45,2.86,2.86,0,0,0,1.07-1.21,4,4,0,0,0,.37-1.74,4,4,0,0,0-.38-1.75,2.92,2.92,0,0,0-2.75-1.67,3,3,0,0,0-1.67.45,3,3,0,0,0-1.09,1.22,4,4,0,0,0-.38,1.75,4,4,0,0,0,.37,1.74,2.86,2.86,0,0,0,1.07,1.21A3.05,3.05,0,0,0,361.81,92.21Z"/><path class="cls-3" d="M370.12,98.17V83.4h2.19v4.66L372,88a6.45,6.45,0,0,1,.69-2.77,4,4,0,0,1,1.62-1.66,4.72,4.72,0,0,1,2.26-.54,5.11,5.11,0,0,1,2.08.41,4.53,4.53,0,0,1,1.59,1.18,5.24,5.24,0,0,1,1,1.76,6.55,6.55,0,0,1,.35,2.15V89a6.79,6.79,0,0,1-.34,2.19,5.36,5.36,0,0,1-1,1.77,4.83,4.83,0,0,1-1.6,1.18,5,5,0,0,1-2.09.43,4.82,4.82,0,0,1-2.21-.51,3.88,3.88,0,0,1-1.62-1.57,6.08,6.08,0,0,1-.7-2.73l.88,1.31v7.11Zm5.73-5.94a2.77,2.77,0,0,0,2.59-1.66,4.08,4.08,0,0,0,.37-1.78,4,4,0,0,0-.37-1.78,2.85,2.85,0,0,0-1-1.19,2.77,2.77,0,0,0-1.56-.43,3.2,3.2,0,0,0-1.5.37,3,3,0,0,0-1.12,1,3.12,3.12,0,0,0-.42,1.66v.8a2.75,2.75,0,0,0,.44,1.59,2.9,2.9,0,0,0,1.13,1A3.13,3.13,0,0,0,375.85,92.23Z"/><path class="cls-3" d="M388.85,94.58a5.81,5.81,0,0,1-2.44-.48,5.11,5.11,0,0,1-1.73-1.28,5.77,5.77,0,0,1-1-1.8,6.15,6.15,0,0,1-.35-2v-.38a6.29,6.29,0,0,1,.35-2.07,5.38,5.38,0,0,1,1-1.79,4.94,4.94,0,0,1,1.7-1.26,5.68,5.68,0,0,1,2.36-.46,5.28,5.28,0,0,1,2.93.76,4.86,4.86,0,0,1,1.78,2,6.07,6.07,0,0,1,.6,2.67v1h-9.56V87.78h7.81l-.84.83a4.68,4.68,0,0,0-.3-1.77,2.51,2.51,0,0,0-.91-1.13,2.71,2.71,0,0,0-1.51-.4,2.74,2.74,0,0,0-1.55.43,2.6,2.6,0,0,0-1,1.2,4.77,4.77,0,0,0-.33,1.87,4.59,4.59,0,0,0,.32,1.8,2.64,2.64,0,0,0,1,1.23,2.89,2.89,0,0,0,1.67.45,3,3,0,0,0,1.63-.41,1.81,1.81,0,0,0,.81-1h2.57a4.63,4.63,0,0,1-.92,2,4.57,4.57,0,0,1-1.72,1.29A5.89,5.89,0,0,1,388.85,94.58Z"/><path class="cls-3" d="M396.34,94.2V83.4h2.19V88h-.06a5.4,5.4,0,0,1,1-3.51,3.6,3.6,0,0,1,2.93-1.2h.39v2.4H402a2.92,2.92,0,0,0-2.16.76,2.89,2.89,0,0,0-.76,2.16V94.2Z"/><path class="cls-3" d="M544.84,50.22a16.86,16.86,0,0,1-1.83-2.8,13.73,13.73,0,0,1-1.21-3.34,18.7,18.7,0,0,1-.42-4.14,17.18,17.18,0,0,1,.44-4.12,13.63,13.63,0,0,1,1.24-3.27,15.79,15.79,0,0,1,1.84-2.67h3.29a23,23,0,0,0-2,2.93,14.3,14.3,0,0,0-1.38,3.29,14.63,14.63,0,0,0-.49,3.84,16.61,16.61,0,0,0,.42,3.84A13,13,0,0,0,546,47.16a16,16,0,0,0,2.21,3.06Z"/><path class="cls-3" d="M549.21,43.15V39.88l6-9.44L557.55,32l-5.35,8.37.26.42H562v2.38Zm8.11,3.2V35.25h2.78v11.1Z"/><path class="cls-3" d="M565.49,46.35l5.81-12.73-.21-.28h-7.83V30.86h11.29v2.29l-5.88,13.2Zm-2.23-10.52v-5h2.44v5Z"/><path class="cls-3" d="M575.31,50.22a16,16,0,0,0,2.21-3.06,13,13,0,0,0,1.28-3.38,16.61,16.61,0,0,0,.42-3.84,13.81,13.81,0,0,0-1.87-7.13,22,22,0,0,0-2-2.93h3.29a15.23,15.23,0,0,1,1.84,2.67,13.63,13.63,0,0,1,1.24,3.27,17.15,17.15,0,0,1,.45,4.12,18.67,18.67,0,0,1-.43,4.14,13.73,13.73,0,0,1-1.21,3.34,17.46,17.46,0,0,1-1.82,2.8Z"/><path class="cls-3" d="M594.73,30.41a6.75,6.75,0,0,1,2.92.58,4.91,4.91,0,0,1,1.94,1.6A6.67,6.67,0,0,1,600.67,35,11.33,11.33,0,0,1,601,37.8v.93a8,8,0,0,1-1.92,5.79,7.53,7.53,0,0,1-5.63,2c-.54,0-1,0-1.51,0s-.93-.07-1.4-.13V43.78c.47,0,1,.09,1.43.12s1,.05,1.59.05a5.44,5.44,0,0,0,2.8-.61,3.39,3.39,0,0,0,1.45-1.82,8.59,8.59,0,0,0,.44-2.94v-1.4l.67-1a5.4,5.4,0,0,1-.64,2.71,4.07,4.07,0,0,1-1.73,1.61,6.28,6.28,0,0,1-5.35-.12,4.48,4.48,0,0,1-1.79-1.82,5.66,5.66,0,0,1-.63-2.72,5.6,5.6,0,0,1,.72-2.86,5,5,0,0,1,2-1.93A6.77,6.77,0,0,1,594.73,30.41Zm.07,2.53a3.49,3.49,0,0,0-1.69.37,2.54,2.54,0,0,0-1.05,1,3.09,3.09,0,0,0-.36,1.51,3,3,0,0,0,.35,1.51,2.39,2.39,0,0,0,1,1,3.23,3.23,0,0,0,1.62.37,4.14,4.14,0,0,0,1.67-.32,2.71,2.71,0,0,0,1.18-1,2.81,2.81,0,0,0,.44-1.6,3.18,3.18,0,0,0-.35-1.49,2.53,2.53,0,0,0-1.06-1A3.8,3.8,0,0,0,594.8,32.94Z"/><path class="cls-3" d="M606.21,46.35V32.73l.94.72h-4.1V30.86h6.16V46.35Z"/><path class="cls-3" d="M612.69,46.35v-3a4.23,4.23,0,0,1,.31-1.7,3.35,3.35,0,0,1,1-1.28,8.56,8.56,0,0,1,1.87-1.07l2.63-1.17A3.91,3.91,0,0,0,620,37.07a2.62,2.62,0,0,0,.51-1.67,2.45,2.45,0,0,0-.66-1.78,3,3,0,0,0-3.79,0,2.62,2.62,0,0,0-.67,1.88h-2.9a5.58,5.58,0,0,1,.6-2.59,4.33,4.33,0,0,1,1.83-1.84,7.28,7.28,0,0,1,6.08,0,4.52,4.52,0,0,1,1.82,1.75,4.93,4.93,0,0,1,.62,2.45v.28a4.35,4.35,0,0,1-1,2.9,7.69,7.69,0,0,1-2.86,2L617,41.6a2.78,2.78,0,0,0-1,.67,1.45,1.45,0,0,0-.29.94v1.36l-.72-.79h8.59v2.57Z"/><path class="cls-3" d="M631.11,46.76a6.65,6.65,0,0,1-3.07-.67,4.8,4.8,0,0,1-2-1.82,4.9,4.9,0,0,1-.68-2.54h2.91a2.34,2.34,0,0,0,.75,1.81,2.92,2.92,0,0,0,2.05.69,3.19,3.19,0,0,0,1.5-.33,2.34,2.34,0,0,0,1-.91,2.6,2.6,0,0,0,.34-1.35,2.55,2.55,0,0,0-.74-1.88,2.83,2.83,0,0,0-2-.73,3.11,3.11,0,0,0-1.11.18,3.69,3.69,0,0,0-.84.44l-1.4-2.38,5.11-3.48-.21-.36H626V30.86h10.12V34l-5.24,3.48-1.64-.3a7,7,0,0,1,.87-.2,6.63,6.63,0,0,1,1-.07,7,7,0,0,1,3,.6,4.55,4.55,0,0,1,1.94,1.67,4.43,4.43,0,0,1,.68,2.44v.27a4.72,4.72,0,0,1-.68,2.48,4.8,4.8,0,0,1-1.95,1.77A6.64,6.64,0,0,1,631.11,46.76Z"/><path class="cls-3" d="M638.71,43.15V39.88l6-9.44L647.05,32l-5.35,8.37.26.42h9.5v2.38Zm8.11,3.2V35.25h2.78v11.1Z"/><path class="cls-3" d="M653,41.68V39.09h8.6v2.59Z"/><path class="cls-3" d="M669.57,46.76a6.27,6.27,0,0,1-3.13-.73,5.07,5.07,0,0,1-2-1.92,5.16,5.16,0,0,1-.69-2.62h2.91a2.66,2.66,0,0,0,.37,1.42,2.6,2.6,0,0,0,1,1,3.26,3.26,0,0,0,1.53.35,3.05,3.05,0,0,0,1.56-.38,2.73,2.73,0,0,0,1-1,3.09,3.09,0,0,0,.36-1.51,3.18,3.18,0,0,0-.35-1.49,2.78,2.78,0,0,0-1-1.07,3,3,0,0,0-1.56-.39,3.51,3.51,0,0,0-1.44.3,2.64,2.64,0,0,0-1.06.78H664.3l.79-8.57h9v2.57h-7.68l1.08-.83L667,38l-.72-.19a5,5,0,0,1,1.5-1.19A4.87,4.87,0,0,1,670,36.1a5.8,5.8,0,0,1,2.93.7,4.86,4.86,0,0,1,1.85,1.86,5.17,5.17,0,0,1,.63,2.51v.28A5.13,5.13,0,0,1,672.76,46,6.3,6.3,0,0,1,669.57,46.76Z"/><path class="cls-3" d="M683.79,46.8a6.76,6.76,0,0,1-2.92-.57,5,5,0,0,1-1.94-1.61,6.82,6.82,0,0,1-1.09-2.36,11.9,11.9,0,0,1-.34-2.85v-.93q0-3.82,1.93-5.78a7.52,7.52,0,0,1,5.63-2c.54,0,1,0,1.51,0s.93.08,1.4.13v2.53l-1.43-.12c-.49,0-1-.05-1.59-.05a5.44,5.44,0,0,0-2.8.61,3.39,3.39,0,0,0-1.45,1.82,8.67,8.67,0,0,0-.44,2.94V40l-.68.95a5.44,5.44,0,0,1,.65-2.7A4.09,4.09,0,0,1,682,36.66a6.28,6.28,0,0,1,5.35.12,4.44,4.44,0,0,1,1.79,1.83,6.09,6.09,0,0,1-.09,5.57,5,5,0,0,1-2,1.93A6.77,6.77,0,0,1,683.79,46.8Zm-.07-2.53a3.49,3.49,0,0,0,1.69-.37,2.54,2.54,0,0,0,1.05-1,3.09,3.09,0,0,0,.36-1.51,3,3,0,0,0-.35-1.51,2.5,2.5,0,0,0-1-1,3.23,3.23,0,0,0-1.62-.37,4.15,4.15,0,0,0-1.67.33,2.71,2.71,0,0,0-1.19,1,2.83,2.83,0,0,0-.43,1.6,3.15,3.15,0,0,0,.35,1.49,2.48,2.48,0,0,0,1.06,1A3.65,3.65,0,0,0,683.72,44.27Z"/><path class="cls-3" d="M693.66,46.35l5.81-12.73-.21-.28h-7.83V30.86h11.29v2.29l-5.88,13.2Zm-2.23-10.52v-5h2.44v5Z"/><path class="cls-3" d="M710.23,46.78a8.12,8.12,0,0,1-3.15-.57A4.66,4.66,0,0,1,705,44.59,4.32,4.32,0,0,1,704.2,42a4.22,4.22,0,0,1,.33-1.72,3.47,3.47,0,0,1,.94-1.29,4.51,4.51,0,0,1,1.39-.83V38a4.83,4.83,0,0,1-1.12-.71,3.12,3.12,0,0,1-.78-1.07,3.63,3.63,0,0,1-.29-1.49,3.73,3.73,0,0,1,.74-2.35,4.57,4.57,0,0,1,2-1.42,7.85,7.85,0,0,1,2.81-.47,8,8,0,0,1,2.84.47,4.45,4.45,0,0,1,2,1.42,3.72,3.72,0,0,1,.73,2.35,3.63,3.63,0,0,1-.28,1.49,3.12,3.12,0,0,1-.78,1.07,4.27,4.27,0,0,1-1.12.71v.25A4.55,4.55,0,0,1,715,39a3.69,3.69,0,0,1,.93,1.3,4.19,4.19,0,0,1,.33,1.7,4.31,4.31,0,0,1-.75,2.55,4.69,4.69,0,0,1-2.11,1.62A8.22,8.22,0,0,1,710.23,46.78Zm0-2.49A4.2,4.2,0,0,0,711.9,44a2.46,2.46,0,0,0,1.08-.87,2.43,2.43,0,0,0,.39-1.38,2.27,2.27,0,0,0-1.46-2.23,4.27,4.27,0,0,0-1.68-.3,4.16,4.16,0,0,0-1.65.3,2.26,2.26,0,0,0-1.47,2.23,2.5,2.5,0,0,0,.38,1.38,2.44,2.44,0,0,0,1.09.87A4.16,4.16,0,0,0,710.23,44.29Zm0-7.32a3.15,3.15,0,0,0,1.92-.52,1.74,1.74,0,0,0,.71-1.52,1.71,1.71,0,0,0-.71-1.51,3.22,3.22,0,0,0-1.92-.5,3.26,3.26,0,0,0-1.92.51,2,2,0,0,0,0,3A3.18,3.18,0,0,0,710.23,37Z"/><path class="cls-3" d="M543.81,70.46l-2.59-9.16h1.58l2.52,9.16Zm.38,0v-1.3h1.9v1.3Zm.84,0,1.85-8.85h2.23l2.17,8.85h-1.41l-2.16-8.82h.55l-1.87,8.82Zm5.18,0v-1.3h1.91v1.3Zm.77,0,2.2-9.16h1.49l-2.24,9.16Z"/><path class="cls-3" d="M558.36,70.46l-2.59-9.16h1.58l2.52,9.16Zm.38,0v-1.3h1.9v1.3Zm.84,0,1.85-8.85h2.23l2.17,8.85h-1.41l-2.16-8.82h.55l-1.87,8.82Zm5.18,0v-1.3h1.91v1.3Zm.77,0,2.2-9.16h1.49L567,70.46Z"/><path class="cls-3" d="M572.91,70.46l-2.59-9.16h1.58l2.52,9.16Zm.38,0v-1.3h1.91v1.3Zm.84,0L576,61.61h2.23l2.17,8.85H579l-2.16-8.82h.55l-1.87,8.82Zm5.18,0v-1.3h1.91v1.3Zm.77,0,2.2-9.16h1.49l-2.24,9.16Z"/><path class="cls-3" d="M585,70.46V68.37h2v2.09Z"/><path class="cls-3" d="M593.43,70.77a4.45,4.45,0,0,1-1.8-.36,4.37,4.37,0,0,1-1.43-1,4.63,4.63,0,0,1-.94-1.51,4.92,4.92,0,0,1-.34-1.86v-.31a5,5,0,0,1,.33-1.83,4.48,4.48,0,0,1,.92-1.51,4,4,0,0,1,1.4-1,4.31,4.31,0,0,1,1.81-.37,4.07,4.07,0,0,1,1.91.44,3.38,3.38,0,0,1,1.4,1.36,5,5,0,0,1,.62,2.4l-.68-1.1V57.93h1.64V70.46H597V66.39h.48a5.31,5.31,0,0,1-.65,2.53,3.54,3.54,0,0,1-1.47,1.41A4.24,4.24,0,0,1,593.43,70.77Zm.23-1.44a3.09,3.09,0,0,0,1.52-.38,2.75,2.75,0,0,0,1.1-1.09,3.21,3.21,0,0,0,.41-1.67V65.4a3,3,0,0,0-.42-1.61,2.84,2.84,0,0,0-1.11-1,3.36,3.36,0,0,0-1.52-.35,2.93,2.93,0,0,0-1.6.43,2.85,2.85,0,0,0-1.08,1.2,4,4,0,0,0-.39,1.82,4,4,0,0,0,.39,1.83,2.91,2.91,0,0,0,1.1,1.2A3.06,3.06,0,0,0,593.66,69.33Z"/><path class="cls-3" d="M605.65,70.77a5.16,5.16,0,0,1-2.11-.41A4.82,4.82,0,0,1,602,69.27a4.71,4.71,0,0,1-.94-1.52,4.85,4.85,0,0,1-.32-1.72v-.31a4.73,4.73,0,0,1,.33-1.72,4.81,4.81,0,0,1,1-1.53,4.69,4.69,0,0,1,1.55-1.08,5,5,0,0,1,2.07-.4,5.08,5.08,0,0,1,2.08.4,4.75,4.75,0,0,1,1.54,1.08,4.81,4.81,0,0,1,1,1.53,4.73,4.73,0,0,1,.33,1.72V66a4.85,4.85,0,0,1-.32,1.72,4.71,4.71,0,0,1-.94,1.52,4.82,4.82,0,0,1-1.54,1.09A5.12,5.12,0,0,1,605.65,70.77Zm0-1.48a3.29,3.29,0,0,0,1.76-.45,3,3,0,0,0,1.12-1.23,3.89,3.89,0,0,0,.38-1.73,3.82,3.82,0,0,0-.39-1.75,3,3,0,0,0-1.13-1.22,3.22,3.22,0,0,0-1.74-.45,3.26,3.26,0,0,0-1.73.45,3,3,0,0,0-1.13,1.22,3.7,3.7,0,0,0-.4,1.75,3.76,3.76,0,0,0,.39,1.73,2.94,2.94,0,0,0,1.11,1.23A3.29,3.29,0,0,0,605.65,69.29Z"/><path class="cls-3" d="M613,70.46V61.3h1.3v3.93h-.2a6.39,6.39,0,0,1,.35-2.28,2.94,2.94,0,0,1,1-1.43,3.05,3.05,0,0,1,1.79-.5h.07a3.05,3.05,0,0,1,1.79.5A3,3,0,0,1,620.24,63a6.89,6.89,0,0,1,.34,2.28h-.48a6.38,6.38,0,0,1,.36-2.28A2.83,2.83,0,0,1,623.32,61h.07a3.11,3.11,0,0,1,1.8.5A3,3,0,0,1,626.27,63a6.62,6.62,0,0,1,.35,2.28v5.23H625V64.87a2.48,2.48,0,0,0-.55-1.73,2,2,0,0,0-1.53-.61,2.18,2.18,0,0,0-1.63.65,2.48,2.48,0,0,0-.61,1.79v5.49H619V64.87a2.48,2.48,0,0,0-.55-1.73,2,2,0,0,0-1.53-.61,2.18,2.18,0,0,0-1.63.65,2.48,2.48,0,0,0-.61,1.79v5.49Z"/><path class="cls-3" d="M628.68,62.6V61.3h3.05v1.3Zm1.87-2.78a1.07,1.07,0,0,1-.82-1.77,1.08,1.08,0,0,1,.82-.29,1,1,0,0,1,1.08,1,1,1,0,0,1-.27.74A1,1,0,0,1,630.55,59.82Zm-.47,10.64V61.3h1.65v9.16Z"/><path class="cls-3" d="M634.92,70.46V61.3h1.31v3.93H636a6.14,6.14,0,0,1,.37-2.29,3,3,0,0,1,1.12-1.43,3.52,3.52,0,0,1,1.91-.49h.07a3,3,0,0,1,2.56,1.08,5,5,0,0,1,.83,3.13v5.23h-1.64V64.88a2.38,2.38,0,0,0-.6-1.7,2.15,2.15,0,0,0-1.65-.65A2.3,2.3,0,0,0,636.57,65v5.47Z"/><path class="cls-3" d="M648.44,70.7a4.2,4.2,0,0,1-1.77-.35,2.66,2.66,0,0,1-1.15-1,3.08,3.08,0,0,1-.4-1.61,2.9,2.9,0,0,1,.43-1.64,2.68,2.68,0,0,1,1.28-1,5.56,5.56,0,0,1,2-.34h2.48V66h-2.55a2.19,2.19,0,0,0-1.53.48,1.6,1.6,0,0,0-.53,1.24,1.54,1.54,0,0,0,.53,1.21,2.24,2.24,0,0,0,1.53.47,3,3,0,0,0,1.11-.22,1.93,1.93,0,0,0,.89-.72,2.62,2.62,0,0,0,.38-1.4l.45.66a4,4,0,0,1-.47,1.63,2.6,2.6,0,0,1-1.07,1A3.58,3.58,0,0,1,648.44,70.7Zm3-.24V67.72h-.28V64.54a1.88,1.88,0,0,0-.49-1.42,2,2,0,0,0-1.43-.48h-1.1l-1.08,0-.89.05V61.3c.25,0,.52,0,.8-.06l.86,0h.86a6.71,6.71,0,0,1,2.3.33,2.4,2.4,0,0,1,1.32,1.09,4.07,4.07,0,0,1,.43,2v5.8Z"/><path class="cls-3" d="M655.45,70.46V68.37h2v2.09Z"/><path class="cls-3" d="M663.85,70.77a4.45,4.45,0,0,1-1.8-.36,4.27,4.27,0,0,1-1.43-1,4.83,4.83,0,0,1-1-1.51,5.12,5.12,0,0,1-.33-1.86v-.31a5,5,0,0,1,.33-1.83,4.62,4.62,0,0,1,.91-1.51,4.18,4.18,0,0,1,1.41-1A4.28,4.28,0,0,1,663.8,61a4.07,4.07,0,0,1,1.91.44,3.38,3.38,0,0,1,1.4,1.36,5.16,5.16,0,0,1,.62,2.4l-.69-1.1V57.93h1.65V70.46h-1.3V66.39h.48a5.31,5.31,0,0,1-.66,2.53,3.46,3.46,0,0,1-1.46,1.41A4.24,4.24,0,0,1,663.85,70.77Zm.23-1.44A3.12,3.12,0,0,0,665.6,69a2.75,2.75,0,0,0,1.1-1.09,3.31,3.31,0,0,0,.41-1.67V65.4a3,3,0,0,0-.42-1.61,2.84,2.84,0,0,0-1.11-1,3.39,3.39,0,0,0-1.52-.35,2.88,2.88,0,0,0-2.69,1.63,4.11,4.11,0,0,0-.38,1.82,4,4,0,0,0,.39,1.83,2.85,2.85,0,0,0,1.1,1.2A3.06,3.06,0,0,0,664.08,69.33Z"/><path class="cls-3" d="M675.74,70.77a4.87,4.87,0,0,1-2.07-.41,4.06,4.06,0,0,1-1.43-1.09,4.55,4.55,0,0,1-.81-1.52,5.57,5.57,0,0,1-.27-1.72v-.31a5.63,5.63,0,0,1,.27-1.73,4.65,4.65,0,0,1,.81-1.52,4.08,4.08,0,0,1,1.4-1.08,4.61,4.61,0,0,1,2-.4,4.32,4.32,0,0,1,2.46.64,3.91,3.91,0,0,1,1.44,1.66,5,5,0,0,1,.48,2.16v.74h-8.14V65h6.93l-.37.67a4.36,4.36,0,0,0-.31-1.69,2.53,2.53,0,0,0-.93-1.11,2.86,2.86,0,0,0-1.56-.39,2.76,2.76,0,0,0-1.62.45,2.63,2.63,0,0,0-1,1.21,4.73,4.73,0,0,0-.32,1.79,4.68,4.68,0,0,0,.32,1.76,2.66,2.66,0,0,0,1,1.23,2.93,2.93,0,0,0,1.7.46,3,3,0,0,0,1.76-.48,1.87,1.87,0,0,0,.82-1.12h1.54a3.56,3.56,0,0,1-2.18,2.68A5,5,0,0,1,675.74,70.77Z"/><path class="cls-3" d="M684.24,70.46l-3.13-9.16h1.72l3,9.16Zm.41,0v-1.3h2v1.3Zm.79,0,2.66-9.16h1.61L687,70.46Z"/><path class="cls-3" d="M573.61,98.37a9.53,9.53,0,0,1-3.42-.61A8,8,0,0,1,567.47,96a7.81,7.81,0,0,1-1.78-2.68,8.89,8.89,0,0,1-.64-3.44,9.15,9.15,0,0,1,.62-3.38,8.17,8.17,0,0,1,1.76-2.73A8.07,8.07,0,0,1,570.16,82a9.41,9.41,0,0,1,3.54-.65,10.27,10.27,0,0,1,3.21.49,8.29,8.29,0,0,1,2.67,1.44,6.71,6.71,0,0,1,1.83,2.35,7.5,7.5,0,0,1,.66,3.24,7.33,7.33,0,0,1-.46,2.69,4.61,4.61,0,0,1-1.28,1.87,2.85,2.85,0,0,1-1.9.69,2.71,2.71,0,0,1-1.39-.35,2.36,2.36,0,0,1-.9-1,3,3,0,0,1-.31-1.4V90.34h.49a4.33,4.33,0,0,1-.52,2,3,3,0,0,1-1.22,1.2A3.35,3.35,0,0,1,573,94a3.54,3.54,0,0,1-1.88-.52A3.81,3.81,0,0,1,569.77,92a4.23,4.23,0,0,1-.48-2v-.27a4,4,0,0,1,.5-2,3.67,3.67,0,0,1,1.34-1.37,3.72,3.72,0,0,1,1.9-.5,3.56,3.56,0,0,1,1.7.41A3.34,3.34,0,0,1,576,87.44a4,4,0,0,1,.52,1.89h-.62V86.08h1.34v5.29a1.68,1.68,0,0,0,.16.79,1.12,1.12,0,0,0,.44.45,1.21,1.21,0,0,0,.6.15,1.56,1.56,0,0,0,1.08-.47,3.5,3.5,0,0,0,.81-1.33,6.27,6.27,0,0,0,.31-2,6.38,6.38,0,0,0-.54-2.72,5.28,5.28,0,0,0-1.51-1.94,6.53,6.53,0,0,0-2.2-1.16,8.76,8.76,0,0,0-2.63-.39,7.83,7.83,0,0,0-3,.55,6.61,6.61,0,0,0-2.28,1.54,7,7,0,0,0-1.44,2.3,8,8,0,0,0-.49,2.84,7.35,7.35,0,0,0,.89,3.68,6.26,6.26,0,0,0,2.5,2.47,7.49,7.49,0,0,0,3.69.88,9.33,9.33,0,0,0,1.07-.06,7.87,7.87,0,0,0,1-.18v1.43c-.32.06-.65.12-1,.16A9.33,9.33,0,0,1,573.61,98.37Zm-.36-5.72a2.68,2.68,0,0,0,1.25-.3,2.28,2.28,0,0,0,.91-.91,2.89,2.89,0,0,0,.35-1.46v-.45a2.19,2.19,0,0,0-1.29-2.12,2.93,2.93,0,0,0-1.22-.26,2.48,2.48,0,0,0-1.29.33,2.18,2.18,0,0,0-.86.94,3.6,3.6,0,0,0,0,2.9,2.26,2.26,0,0,0,2.14,1.33Z"/><path class="cls-3" d="M588.58,94.51a4.47,4.47,0,0,1-1.81-.36,4.26,4.26,0,0,1-1.43-1,4.43,4.43,0,0,1-.94-1.51,4.87,4.87,0,0,1-.34-1.85v-.31a5,5,0,0,1,.33-1.83,4.64,4.64,0,0,1,.92-1.51,4,4,0,0,1,1.4-1,4.31,4.31,0,0,1,1.81-.37,4.16,4.16,0,0,1,1.91.43,3.47,3.47,0,0,1,1.4,1.37,5,5,0,0,1,.62,2.4l-.68-1.1V81.67h1.64V94.2h-1.3V90.13h.48a5.35,5.35,0,0,1-.65,2.53,3.54,3.54,0,0,1-1.47,1.41A4.23,4.23,0,0,1,588.58,94.51Zm.22-1.44a3.15,3.15,0,0,0,1.53-.38,2.85,2.85,0,0,0,1.09-1.09,3.23,3.23,0,0,0,.41-1.67v-.79a3,3,0,0,0-.41-1.61,2.86,2.86,0,0,0-1.12-1,3.36,3.36,0,0,0-1.52-.35,2.93,2.93,0,0,0-1.6.43,2.74,2.74,0,0,0-1.08,1.2,4,4,0,0,0-.39,1.82,4.07,4.07,0,0,0,.39,1.83,2.91,2.91,0,0,0,1.1,1.2A3.06,3.06,0,0,0,588.8,93.07Z"/><path class="cls-3" d="M600.79,94.51a5.16,5.16,0,0,1-2.11-.41A4.77,4.77,0,0,1,597.15,93a4.68,4.68,0,0,1-.95-1.52,4.85,4.85,0,0,1-.32-1.72v-.31a4.69,4.69,0,0,1,2.84-4.33,5,5,0,0,1,2.07-.4,5.08,5.08,0,0,1,2.08.4,4.75,4.75,0,0,1,1.54,1.08,4.55,4.55,0,0,1,1,1.53,4.69,4.69,0,0,1,.33,1.72v.31a4.85,4.85,0,0,1-.32,1.72,4.65,4.65,0,0,1-.94,1.52,4.82,4.82,0,0,1-1.54,1.09A5.12,5.12,0,0,1,600.79,94.51Zm0-1.48a3.29,3.29,0,0,0,1.76-.45,3.08,3.08,0,0,0,1.12-1.23,3.89,3.89,0,0,0,.38-1.73,3.82,3.82,0,0,0-.39-1.75,3,3,0,0,0-1.13-1.22,3.22,3.22,0,0,0-1.74-.45,3.26,3.26,0,0,0-1.73.45,3,3,0,0,0-1.13,1.22,3.7,3.7,0,0,0-.4,1.75,3.76,3.76,0,0,0,.39,1.73A3.06,3.06,0,0,0,599,92.58,3.31,3.31,0,0,0,600.79,93Z"/><path class="cls-3" d="M608.17,94.2V85h1.3V89h-.2a6.39,6.39,0,0,1,.35-2.28,3,3,0,0,1,1-1.43,3.05,3.05,0,0,1,1.79-.5h.07a3.05,3.05,0,0,1,1.79.5,3,3,0,0,1,1.06,1.43,6.89,6.89,0,0,1,.34,2.28h-.48a6.38,6.38,0,0,1,.36-2.28,3,3,0,0,1,1.07-1.43,3.07,3.07,0,0,1,1.79-.5h.07a3.11,3.11,0,0,1,1.8.5,2.93,2.93,0,0,1,1.08,1.43,6.62,6.62,0,0,1,.35,2.28V94.2h-1.65V88.61a2.48,2.48,0,0,0-.55-1.73,1.92,1.92,0,0,0-1.52-.61,2.18,2.18,0,0,0-1.63.64,2.46,2.46,0,0,0-.62,1.8V94.2h-1.65V88.61a2.48,2.48,0,0,0-.55-1.73,1.92,1.92,0,0,0-1.53-.61,2.21,2.21,0,0,0-1.63.64,2.5,2.5,0,0,0-.61,1.8V94.2Z"/><path class="cls-3" d="M623.82,86.34V85h3v1.3Zm1.87-2.78a1.08,1.08,0,0,1-.82-.29,1.18,1.18,0,0,1,0-1.48,1.08,1.08,0,0,1,.82-.29,1,1,0,1,1,0,2.06Zm-.47,10.64V85h1.65V94.2Z"/><path class="cls-3" d="M630.06,94.2V85h1.31V89h-.21a6.23,6.23,0,0,1,.37-2.3,3,3,0,0,1,1.12-1.42,3.43,3.43,0,0,1,1.91-.49h.07a3,3,0,0,1,2.56,1.08A5,5,0,0,1,638,89V94.2h-1.64V88.62a2.41,2.41,0,0,0-.6-1.71,2.18,2.18,0,0,0-1.65-.64,2.36,2.36,0,0,0-1.75.67,2.41,2.41,0,0,0-.67,1.79V94.2Z"/><path class="cls-3" d="M643.58,94.44a4.2,4.2,0,0,1-1.77-.35,2.66,2.66,0,0,1-1.15-1,3.09,3.09,0,0,1-.41-1.62,2.89,2.89,0,0,1,.44-1.63,2.68,2.68,0,0,1,1.28-1,5.36,5.36,0,0,1,2-.34h2.48v1.24h-2.55a2.19,2.19,0,0,0-1.53.48,1.56,1.56,0,0,0-.53,1.23,1.52,1.52,0,0,0,.53,1.22,2.24,2.24,0,0,0,1.53.46,3,3,0,0,0,1.11-.21,1.93,1.93,0,0,0,.89-.72,2.62,2.62,0,0,0,.38-1.4l.45.65a4,4,0,0,1-.47,1.64,2.6,2.6,0,0,1-1.07,1A3.71,3.71,0,0,1,643.58,94.44Zm3-.24V91.45h-.28V88.28a1.88,1.88,0,0,0-.49-1.42,1.91,1.91,0,0,0-1.43-.49l-1.1,0-1.08,0c-.34,0-.64,0-.89,0V85c.25,0,.52-.05.8-.06l.86,0h.86a6.45,6.45,0,0,1,2.3.34,2.36,2.36,0,0,1,1.32,1.09,4.07,4.07,0,0,1,.43,2v5.8Z"/><path class="cls-3" d="M654.74,94.51a4.38,4.38,0,0,1-1.8-.36,4.3,4.3,0,0,1-1.44-1,4.59,4.59,0,0,1-.94-1.51,5.07,5.07,0,0,1-.34-1.85v-.31a5,5,0,0,1,.33-1.83,4.64,4.64,0,0,1,.92-1.51,4,4,0,0,1,1.41-1,4.25,4.25,0,0,1,1.81-.37,4.15,4.15,0,0,1,1.9.43A3.56,3.56,0,0,1,658,86.53a5.29,5.29,0,0,1,.62,2.4l-.69-1.1V81.67h1.65V94.2h-1.31V90.13h.48a5.23,5.23,0,0,1-.65,2.53,3.54,3.54,0,0,1-1.47,1.41A4.23,4.23,0,0,1,654.74,94.51Zm.22-1.44a3.15,3.15,0,0,0,1.53-.38,2.85,2.85,0,0,0,1.09-1.09,3.24,3.24,0,0,0,.42-1.67v-.79a3,3,0,0,0-.42-1.61,2.79,2.79,0,0,0-1.12-1,3.36,3.36,0,0,0-1.52-.35,3,3,0,0,0-1.6.43,2.8,2.8,0,0,0-1.08,1.2,4.41,4.41,0,0,0,0,3.65,2.89,2.89,0,0,0,1.09,1.2A3.08,3.08,0,0,0,655,93.07Z"/><path class="cls-3" d="M666.63,94.51a4.91,4.91,0,0,1-2.08-.41A4,4,0,0,1,663.13,93a4.67,4.67,0,0,1-.82-1.52,5.56,5.56,0,0,1-.26-1.72v-.31a5.63,5.63,0,0,1,.26-1.73,4.57,4.57,0,0,1,.82-1.52,3.9,3.9,0,0,1,1.4-1.08,4.56,4.56,0,0,1,2-.4,4.38,4.38,0,0,1,2.47.64A4,4,0,0,1,670.43,87a5.08,5.08,0,0,1,.47,2.16v.74h-8.13V88.69h6.93l-.38.67a4.15,4.15,0,0,0-.31-1.69,2.45,2.45,0,0,0-.92-1.11,2.92,2.92,0,0,0-1.57-.39,2.84,2.84,0,0,0-1.62.44,2.71,2.71,0,0,0-1,1.22,4.73,4.73,0,0,0-.32,1.79,4.68,4.68,0,0,0,.32,1.76,2.62,2.62,0,0,0,1,1.23,3.42,3.42,0,0,0,3.46,0,1.88,1.88,0,0,0,.81-1.12h1.55a3.62,3.62,0,0,1-2.18,2.68A5,5,0,0,1,666.63,94.51Z"/><path class="cls-3" d="M675.12,94.2,672,85h1.71l3.06,9.16Zm.41,0V92.89h2V94.2Zm.79,0L679,85h1.61l-2.71,9.16Z"/><path class="cls-4" d="M165.61,0V59.21a11.25,11.25,0,0,0,11.25,11.25H475.18a11.25,11.25,0,0,0,11.25-11.25V40.67a11.25,11.25,0,0,0-11.25-11.24h-281A11.24,11.24,0,0,0,183,40.67v86.11"/><path class="cls-5" d="M549.29,83.31c2.15,0,2.4,0,3.25,0a4.28,4.28,0,0,1,1.5.28,2.41,2.41,0,0,1,.93.6,2.53,2.53,0,0,1,.6.93,4.52,4.52,0,0,1,.28,1.49c0,.85,0,1.11,0,3.26s0,2.41,0,3.26a4.6,4.6,0,0,1-.28,1.5,2.57,2.57,0,0,1-.6.92,2.43,2.43,0,0,1-.93.61,4.35,4.35,0,0,1-1.5.27c-.85,0-1.1,0-3.25,0s-2.41,0-3.26,0a4.35,4.35,0,0,1-1.5-.27,2.51,2.51,0,0,1-.93-.61,2.57,2.57,0,0,1-.6-.92,4.6,4.6,0,0,1-.28-1.5c0-.85,0-1.11,0-3.26s0-2.41,0-3.26a4.52,4.52,0,0,1,.28-1.49,2.53,2.53,0,0,1,.6-.93,2.48,2.48,0,0,1,.93-.6,4.28,4.28,0,0,1,1.5-.28c.85,0,1.1,0,3.26,0m0-1.45c-2.19,0-2.47,0-3.33,0a6,6,0,0,0-2,.37,4.14,4.14,0,0,0-2.35,2.36,5.9,5.9,0,0,0-.38,2c0,.86,0,1.13,0,3.32s0,2.47,0,3.33a5.89,5.89,0,0,0,.38,2A4.14,4.14,0,0,0,544,97.56a6,6,0,0,0,2,.38c.86,0,1.14,0,3.33,0s2.46,0,3.32,0a6,6,0,0,0,2-.38,4.14,4.14,0,0,0,2.35-2.36,5.89,5.89,0,0,0,.38-2c0-.86.05-1.14.05-3.33s0-2.46-.05-3.32a5.9,5.9,0,0,0-.38-2,4.14,4.14,0,0,0-2.35-2.36,6,6,0,0,0-2-.37c-.86,0-1.13,0-3.32,0Z"/><path class="cls-5" d="M549.29,85.78a4.14,4.14,0,1,0,4.14,4.14A4.14,4.14,0,0,0,549.29,85.78Zm0,6.83A2.69,2.69,0,1,1,552,89.92,2.68,2.68,0,0,1,549.29,92.61Z"/><circle class="cls-5" cx="553.59" cy="85.62" r="0.97"/></svg>