<svg id="Camada_1" data-name="Camada 1" xmlns="http://www.w3.org/2000/svg" viewBox="0 0 1920 244.81"><defs><style>.cls-1{fill:#fc561e;}</style></defs><path class="cls-1" d="M189.17,0H0V178.05H66.77V74.91a6.76,6.76,0,0,1,12-4.23L98.62,95.46a12.59,12.59,0,0,0,21.23-2.54l23-49.25a8.16,8.16,0,0,1,14.79,0l23,49.22a12.6,12.6,0,0,0,21.26,2.54l19.8-24.75a6.76,6.76,0,0,1,12,4.22V156a22,22,0,0,1-22,22H66.77v66.76h122.4a122.4,122.4,0,0,0,122.41-122.4h0A122.4,122.4,0,0,0,189.17,0Z"/><path class="cls-1" d="M716.27,69.83A70.79,70.79,0,0,0,692.5,54.36q-13.95-5.65-31.81-5.66a83.71,83.71,0,0,0-31.44,5.66,72,72,0,0,0-24,15.47A67.51,67.51,0,0,0,590,92.59a71.61,71.61,0,0,0-5.28,27.29v5.78a72,72,0,0,0,5,26.79,67,67,0,0,0,14.84,22.63,69.31,69.31,0,0,0,23.89,15.6q14.07,5.65,32.19,5.65,18.36,0,32.44-5.65a67.48,67.48,0,0,0,38.48-38.23,72.18,72.18,0,0,0,5-26.79v-5.78a71.61,71.61,0,0,0-5.28-27.29A68.38,68.38,0,0,0,716.27,69.83ZM692.13,143a31.64,31.64,0,0,1-11.82,14.08q-7.8,5-19.62,5-11.33,0-19.37-5A31,31,0,0,1,629.25,143a49,49,0,0,1-4-20.12,48.7,48.7,0,0,1,4.15-20.75,32.74,32.74,0,0,1,12.19-14.09,34.75,34.75,0,0,1,19.12-5.15q11.31,0,19.24,5.15A33.08,33.08,0,0,1,692,102.15a48.7,48.7,0,0,1,4.15,20.75A49,49,0,0,1,692.13,143Z"/><path class="cls-1" d="M956.07,56.38q-10.68-7.17-26.28-7.17H928q-15.35,0-25.9,7.17t-16,21.25c-.19.5-.32,1.07-.51,1.59-.18-.52-.31-1.09-.5-1.59q-5.42-14.08-15.84-21.25t-26-7.17h-1.76q-15.35,0-25.91,7.17T799.77,77.63a74,74,0,0,0-3,11.06V53.48H764.56V191.3h40.49v-80q0-11.56,6.29-18.74t17.35-7.17q10.56,0,16.47,7t5.91,18.1V191.3h40.5v-80q0-11.56,6.28-18.74T915,85.42q10.81,0,16.6,7t5.79,18.1V191.3h40.49V112.84q0-21.14-5.53-35.21T956.07,56.38Z"/><polygon class="cls-1" points="999.96 53.48 999.96 83.41 1018.32 83.41 1018.32 191.3 1058.81 191.3 1058.81 83.41 1058.81 53.48 1018.32 53.48 999.96 53.48"/><path class="cls-1" d="M1176.26,49.21h-1.76q-15.86,0-26.91,7t-16.48,21.13A72.78,72.78,0,0,0,1128,88.71V53.48h-32.19V191.3h40.49V111.08q0-11.56,6.92-18.61t18.23-7q11.05,0,17.48,6.92t6.41,18v81h40.49V112.58q0-31.93-12.7-47.65T1176.26,49.21Z"/><path class="cls-1" d="M1367.65,75.49q-7.55-12.19-22-18.23t-35.59-6q-7.29,0-15.59.25t-16.1.76q-7.78.5-13.83,1v34q7.8-.5,17.48-.88t18.74-.63q9-.24,14.58-.25,11.07,0,16.1,5.16t5,16v.25h-24.9q-18.36,0-32.44,4.65t-21.88,14.34q-7.8,9.69-7.8,24.77,0,13.83,6.29,23.77a40.74,40.74,0,0,0,17.48,15.21q11.19,5.29,26,5.28,14.34,0,24.27-5.28a38.57,38.57,0,0,0,15.59-15.09,47.39,47.39,0,0,0,4.15-9.77V191.3h31.94V106.8Q1375.19,87.69,1367.65,75.49Zm-44.14,89a29.94,29.94,0,0,1-12.2,2.39q-10.56,0-16.22-5.16a17.34,17.34,0,0,1-5.66-13.45q0-8.81,5.66-14t16.22-5.16h25.15v11.07q-.51,10.32-4,16.1A19.89,19.89,0,0,1,1323.51,164.52Z"/><path class="cls-1" d="M544.83,73.21a71.24,71.24,0,0,0-23.77-14.44q-13.95-5.3-31.81-5.29H423.51V191.3h65.74q18.36,0,32.44-5.28a68.81,68.81,0,0,0,23.77-14.55,63,63,0,0,0,19.74-46.14v-5.4a63.44,63.44,0,0,0-20.37-46.72Zm-24.14,68.32a30.18,30.18,0,0,1-11.82,13.15q-7.8,4.69-19.62,4.69H464v-74h25.25q11.31,0,19.24,4.82a31.53,31.53,0,0,1,12.07,13.15,42.86,42.86,0,0,1,4.15,19.37A43.17,43.17,0,0,1,520.69,141.53Z"/><path class="cls-1" d="M1597.77,73.21a64.21,64.21,0,0,0-21.68-14.44q-12.72-5.3-29-5.29h-60V191.3h60q16.74,0,29.59-5.28a62,62,0,0,0,21.67-14.55,63.74,63.74,0,0,0,13.42-21.14,68.59,68.59,0,0,0,4.59-25v-5.4a68.3,68.3,0,0,0-4.82-25.48A63.91,63.91,0,0,0,1597.77,73.21Zm-12,73.82A38.93,38.93,0,0,1,1570.44,164Q1560.29,170,1544.9,170H1512V74.79h32.86q14.73,0,25,6.19a40.78,40.78,0,0,1,15.71,16.93q5.41,10.74,5.41,24.94A55.05,55.05,0,0,1,1585.82,147Z"/><path class="cls-1" d="M1746.4,59q-14.49-9.62-36.82-9.62-17.2,0-29.89,6a59.09,59.09,0,0,0-20.92,16.18,68.55,68.55,0,0,0-12.19,22.71,85.4,85.4,0,0,0-4,25.92v4.61a84.76,84.76,0,0,0,4,25.67,68.4,68.4,0,0,0,12.19,22.7,59.28,59.28,0,0,0,21.3,16.3q13.1,6.17,31,6.16a74.18,74.18,0,0,0,29-5.4,53.51,53.51,0,0,0,32.59-40h-23.09q-2.07,9.49-12.2,16.68t-26.3,7.18q-15.4,0-25.4-6.8A39.92,39.92,0,0,1,1671,148.76a65.84,65.84,0,0,1-4.48-19.83H1775V116A75.68,75.68,0,0,0,1768,83.71,59.49,59.49,0,0,0,1746.4,59Zm-79.05,49.66A60.46,60.46,0,0,1,1671,95.78a40.2,40.2,0,0,1,14.37-18.23q9.62-6.66,24.25-6.67,14.12,0,23.35,5.91a36.15,36.15,0,0,1,13.86,16.55,56.12,56.12,0,0,1,3.94,15.27Z"/><polygon class="cls-1" points="1895.88 53.95 1861.76 171.47 1856.27 171.47 1817.1 53.95 1791.44 53.95 1838.14 190.98 1844.3 190.98 1856.1 190.98 1862.77 190.98 1874.07 190.98 1879.46 190.98 1920 53.95 1895.88 53.95"/></svg>